<?xml version="1.0" encoding="UTF-8"?> <svg xmlns="http://www.w3.org/2000/svg" width="20" height="20" viewBox="0 0 20 20" fill="none"><path fill-rule="evenodd" clip-rule="evenodd" d="M9.99967 3.33301C8.27378 3.33301 6.87467 4.73212 6.87467 6.45801C6.87467 8.1839 8.27378 9.58301 9.99967 9.58301C11.7256 9.58301 13.1247 8.1839 13.1247 6.45801C13.1247 4.73212 11.7256 3.33301 9.99967 3.33301ZM8.12467 6.45801C8.12467 5.42247 8.96414 4.58301 9.99967 4.58301C11.0352 4.58301 11.8747 5.42247 11.8747 6.45801C11.8747 7.49354 11.0352 8.33301 9.99967 8.33301C8.96414 8.33301 8.12467 7.49354 8.12467 6.45801Z" fill="#324EEF" style="fill:#324EEF;fill:color(display-p3 0.1953 0.3072 0.9375);fill-opacity:1;"></path><path fill-rule="evenodd" clip-rule="evenodd" d="M7.49967 10.833C5.77378 10.833 4.37467 12.2321 4.37467 13.958C4.37467 15.6839 5.77378 17.083 7.49967 17.083H12.4997C14.2256 17.083 15.6247 15.6839 15.6247 13.958C15.6247 12.2321 14.2256 10.833 12.4997 10.833H7.49967ZM5.62467 13.958C5.62467 12.9225 6.46414 12.083 7.49967 12.083H12.4997C13.5352 12.083 14.3747 12.9225 14.3747 13.958C14.3747 14.9935 13.5352 15.833 12.4997 15.833H7.49967C6.46414 15.833 5.62467 14.9935 5.62467 13.958Z" fill="#324EEF" style="fill:#324EEF;fill:color(display-p3 0.1953 0.3072 0.9375);fill-opacity:1;"></path><path d="M6.45979 8.65689C6.32835 8.44574 6.08173 8.33301 5.83301 8.33301C4.79747 8.33301 3.95801 7.49354 3.95801 6.45801C3.95801 5.42247 4.79747 4.58301 5.83301 4.58301C6.08173 4.58301 6.32835 4.47028 6.45979 4.25913C6.4656 4.24979 6.47145 4.24048 6.47734 4.23119C6.69617 3.88576 6.58529 3.39667 6.17884 3.35193C6.06528 3.33943 5.9499 3.33301 5.83301 3.33301C4.10712 3.33301 2.70801 4.73212 2.70801 6.45801C2.70801 8.1839 4.10712 9.58301 5.83301 9.58301C5.9499 9.58301 6.06528 9.57659 6.17884 9.56409C6.5853 9.51934 6.69617 9.03025 6.47734 8.68483C6.47145 8.67554 6.4656 8.66622 6.45979 8.65689Z" fill="#324EEF" style="fill:#324EEF;fill:color(display-p3 0.1953 0.3072 0.9375);fill-opacity:1;"></path><path d="M3.92325 15.2637C3.82865 15.1059 3.66167 14.9997 3.47766 14.9997H3.33301C2.29747 14.9997 1.45801 14.1602 1.45801 13.1247C1.45801 12.0891 2.29747 11.2497 3.33301 11.2497H3.47766C3.66167 11.2497 3.82865 11.1434 3.92325 10.9856C4.15417 10.6004 3.90358 9.99967 3.45442 9.99967H3.33301C1.60712 9.99967 0.208008 11.3988 0.208008 13.1247C0.208008 14.8506 1.60712 16.2497 3.33301 16.2497H3.45442C3.90358 16.2497 4.15417 15.649 3.92325 15.2637Z" fill="#324EEF" style="fill:#324EEF;fill:color(display-p3 0.1953 0.3072 0.9375);fill-opacity:1;"></path><path d="M13.522 8.68483C13.3032 9.03025 13.4141 9.51934 13.8205 9.56409C13.9341 9.57659 14.0495 9.58301 14.1663 9.58301C15.8922 9.58301 17.2913 8.1839 17.2913 6.45801C17.2913 4.73212 15.8922 3.33301 14.1663 3.33301C14.0495 3.33301 13.9341 3.33943 13.8205 3.35193C13.4141 3.39668 13.3032 3.88576 13.522 4.23119C13.5279 4.24048 13.5337 4.24979 13.5396 4.25913C13.671 4.47028 13.9176 4.58301 14.1663 4.58301C15.2019 4.58301 16.0413 5.42247 16.0413 6.45801C16.0413 7.49354 15.2019 8.33301 14.1663 8.33301C13.9176 8.33301 13.671 8.44574 13.5396 8.65689C13.5337 8.66622 13.5279 8.67554 13.522 8.68483Z" fill="#324EEF" style="fill:#324EEF;fill:color(display-p3 0.1953 0.3072 0.9375);fill-opacity:1;"></path><path d="M16.0761 15.2637C15.8452 15.649 16.0958 16.2497 16.5449 16.2497H16.6663C18.3922 16.2497 19.7913 14.8506 19.7913 13.1247C19.7913 11.3988 18.3922 9.99967 16.6663 9.99967H16.5449C16.0958 9.99967 15.8452 10.6004 16.0761 10.9856C16.1707 11.1434 16.3377 11.2497 16.5217 11.2497H16.6663C17.7019 11.2497 18.5413 12.0891 18.5413 13.1247C18.5413 14.1602 17.7019 14.9997 16.6663 14.9997H16.5217C16.3377 14.9997 16.1707 15.1059 16.0761 15.2637Z" fill="#324EEF" style="fill:#324EEF;fill:color(display-p3 0.1953 0.3072 0.9375);fill-opacity:1;"></path></svg> 