<?xml version="1.0" encoding="UTF-8"?> <svg xmlns="http://www.w3.org/2000/svg" width="20" height="20" viewBox="0 0 20 20" fill="none"><path fill-rule="evenodd" clip-rule="evenodd" d="M9.99968 0.208008C7.55932 0.208008 5.54505 2.03231 5.24624 4.39154C4.10832 4.43866 3.24538 4.57338 2.52426 4.97149C1.6032 5.47998 0.87591 6.277 0.45336 7.23857C0.440347 7.26819 0.427623 7.29795 0.415193 7.32787C0.16092 7.93987 0.093152 8.60846 0.113836 9.41222C0.134195 10.2033 0.243378 11.186 0.382961 12.4422L0.389126 12.4977C0.503176 13.5241 0.592779 14.3306 0.716057 14.9777C0.841829 15.6379 1.01054 16.1799 1.30742 16.6656C1.79747 17.4672 2.51238 18.1071 3.36322 18.5056C3.87869 18.747 4.436 18.8549 5.10606 18.907C5.76282 18.958 6.57421 18.958 7.60698 18.958H12.3923C13.4251 18.958 14.2365 18.958 14.8933 18.907C15.5634 18.8549 16.1207 18.747 16.6361 18.5056C17.487 18.1071 18.2019 17.4672 18.6919 16.6656C18.9888 16.1799 19.1575 15.6379 19.2833 14.9777C19.4066 14.3306 19.4962 13.5242 19.6102 12.4978L19.6164 12.4422C19.756 11.1861 19.8652 10.2033 19.8855 9.41222C19.9062 8.60846 19.8384 7.93987 19.5842 7.32787C19.5513 7.24885 19.5165 7.17089 19.4796 7.09405C19.0494 6.19717 18.3496 5.45429 17.4751 4.97149C16.7511 4.5718 15.891 4.44521 14.7543 4.4006C14.4595 2.03698 12.4432 0.208008 9.99968 0.208008ZM6.9609 4.37236C6.8076 4.37155 6.65849 4.37076 6.51374 4.37044C6.81065 2.71461 8.25842 1.45801 9.99968 1.45801C11.7431 1.45801 13.1923 2.71776 13.4867 4.37666C13.1418 4.37467 12.7704 4.37467 12.3707 4.37467H7.63329C7.40114 4.37467 7.17686 4.37349 6.9609 4.37236ZM5.84488 5.62456C6.17824 5.61823 6.53292 5.62013 6.93241 5.62226C7.1513 5.62343 7.38364 5.62467 7.63329 5.62467H12.3661C13.0531 5.62467 13.6409 5.6247 14.1546 5.63431C15.6012 5.66139 16.3322 5.76837 16.871 6.0658C17.3855 6.34987 17.8183 6.75578 18.1338 7.24395L15.3492 10.0285C13.9478 11.4299 12.9403 12.4355 12.0713 13.0986C11.2167 13.7506 10.5699 14.0121 9.89856 14.0121C9.22722 14.0121 8.58044 13.7506 7.72585 13.0986C6.85685 12.4355 5.84933 11.4299 4.44795 10.0285L1.78841 7.36899C2.1088 6.82501 2.57051 6.37379 3.1284 6.0658C3.66761 5.76811 4.40978 5.65182 5.84488 5.62456ZM18.6081 8.53739C18.6353 8.77595 18.6444 9.0516 18.6359 9.38006C18.6171 10.1118 18.5143 11.0416 18.3708 12.3335C18.2532 13.3918 18.1685 14.15 18.0554 14.7438C17.9437 15.33 17.8123 15.7079 17.6254 16.0136C17.2632 16.6061 16.7348 17.0791 16.1059 17.3736C15.7815 17.5256 15.3913 17.6145 14.7964 17.6607C14.1937 17.7076 13.4308 17.708 12.3661 17.708H7.63329C6.56856 17.708 5.80562 17.7076 5.20295 17.6607C4.60801 17.6145 4.21787 17.5256 3.89343 17.3736C3.26455 17.0791 2.73614 16.6061 2.37392 16.0136C2.18706 15.7079 2.05565 15.33 1.94397 14.7438C1.83085 14.15 1.74616 13.3918 1.62858 12.3335C1.48504 11.0416 1.38225 10.1118 1.36342 9.38006C1.35707 9.13336 1.36064 8.91645 1.37433 8.72267L3.59788 10.9462C4.9581 12.3065 6.02408 13.3725 6.96763 14.0924C7.9334 14.8292 8.84402 15.2621 9.89856 15.2621C10.9531 15.2621 11.8637 14.8292 12.8295 14.0924C13.773 13.3725 14.839 12.3065 16.1993 10.9462L18.6081 8.53739Z" fill="#324EEF" style="fill:#324EEF;fill:color(display-p3 0.1953 0.3072 0.9375);fill-opacity:1;"></path></svg> 