<?xml version="1.0" encoding="UTF-8"?> <svg xmlns="http://www.w3.org/2000/svg" width="20" height="20" viewBox="0 0 20 20" fill="none"><path fill-rule="evenodd" clip-rule="evenodd" d="M12.7196 0.312091C11.7678 0.208972 11.5682 0.208978 10.0377 0.208984H9.96229C8.43185 0.208978 8.23218 0.208972 7.2804 0.312091C6.30912 0.417323 5.52213 0.635921 4.8502 1.12411C4.44341 1.41966 4.08568 1.77739 3.79013 2.18418C3.30194 2.85612 3.08334 3.6431 2.97811 4.61438C2.87499 5.56616 2.87499 6.76583 2.875 8.29628V11.705C2.87499 13.2355 2.87499 14.4351 2.97811 15.3869C3.08334 16.3582 3.30194 17.1452 3.79013 17.8171C4.08568 18.2239 4.44341 18.5816 4.8502 18.8772C5.52213 19.3654 6.30912 19.584 7.2804 19.6892C8.23216 19.7923 8.4318 19.7923 9.96221 19.7923H10.0377C11.5681 19.7923 11.7678 19.7923 12.7196 19.6892C13.6909 19.584 14.4779 19.3654 15.1498 18.8772C15.5566 18.5816 15.9143 18.2239 16.2099 17.8171C16.6981 17.1452 16.9167 16.3582 17.0219 15.3869C17.125 14.4352 17.125 13.2355 17.125 11.7051V8.29626C17.125 6.76585 17.125 5.56614 17.0219 4.61438C16.9167 3.6431 16.6981 2.85612 16.2099 2.18418C15.9143 1.77739 15.5566 1.41966 15.1498 1.12411C14.4779 0.635921 13.6909 0.417323 12.7196 0.312091ZM5.58493 2.13538C6.00826 1.82781 6.55011 1.64853 7.41504 1.55482C8.29166 1.45984 8.42369 1.45898 10 1.45898C11.5763 1.45898 11.7083 1.45984 12.585 1.55482C13.4499 1.64853 13.9917 1.82781 14.4151 2.13538C14.7157 2.35383 14.9802 2.61824 15.1986 2.91891C15.5062 3.34225 15.6855 3.8841 15.7792 4.74902C15.8741 5.62565 15.875 6.75767 15.875 8.33398V11.6673C15.875 13.2436 15.8741 14.3757 15.7792 15.2523C15.6855 16.1172 15.5062 16.6591 15.1986 17.0824C14.9802 17.3831 14.7157 17.6475 14.4151 17.8659C13.9917 18.1735 13.4499 18.3528 12.585 18.4465C11.7083 18.5415 11.5763 18.5423 10 18.5423C8.42369 18.5423 8.29166 18.5415 7.41504 18.4465C6.55011 18.3528 6.00826 18.1735 5.58493 17.8659C5.28426 17.6475 5.01985 17.3831 4.8014 17.0824C4.49383 16.6591 4.31454 16.1172 4.22083 15.2523C4.12586 14.3757 4.125 13.2436 4.125 11.6673V8.33399C4.125 6.75768 4.12586 5.62565 4.22083 4.74902C4.31454 3.8841 4.49383 3.34225 4.8014 2.91891C5.01985 2.61824 5.28426 2.35383 5.58493 2.13538Z" fill="#324EEF" style="fill:#324EEF;fill:color(display-p3 0.1953 0.3072 0.9375);fill-opacity:1;"></path><path fill-rule="evenodd" clip-rule="evenodd" d="M9.99967 11.668C8.73402 11.668 7.70801 12.694 7.70801 13.9596C7.70801 15.2253 8.73402 16.2513 9.99967 16.2513C11.2653 16.2513 12.2913 15.2253 12.2913 13.9596C12.2913 12.694 11.2653 11.668 9.99967 11.668ZM8.95801 13.9596C8.95801 13.3843 9.42438 12.918 9.99967 12.918C10.575 12.918 11.0413 13.3843 11.0413 13.9596C11.0413 14.5349 10.575 15.0013 9.99967 15.0013C9.42438 15.0013 8.95801 14.5349 8.95801 13.9596Z" fill="#324EEF" style="fill:#324EEF;fill:color(display-p3 0.1953 0.3072 0.9375);fill-opacity:1;"></path></svg> 