<?xml version="1.0" encoding="UTF-8"?> <svg xmlns="http://www.w3.org/2000/svg" width="20" height="20" viewBox="0 0 20 20" fill="none"><path fill-rule="evenodd" clip-rule="evenodd" d="M7.50009 7.70893C6.23444 7.70893 5.20842 8.73494 5.20842 10.0006C5.20842 11.2662 6.23444 12.2923 7.50009 12.2923C8.54907 12.2923 9.43344 11.5875 9.70549 10.6256H11.2407C11.2868 10.8514 11.2571 11.089 11.1517 11.2998L11.1077 11.3878C10.9534 11.6965 11.0785 12.0719 11.3872 12.2263C11.696 12.3806 12.0714 12.2555 12.2258 11.9468L12.2698 11.8588C12.463 11.4723 12.5405 11.0449 12.5022 10.6256H13.7407C13.7868 10.8514 13.7571 11.089 13.6517 11.2998L13.6077 11.3878C13.4534 11.6965 13.5785 12.0719 13.8872 12.2263C14.196 12.3806 14.5714 12.2555 14.7258 11.9468L14.7698 11.8588C15.0923 11.2136 15.0923 10.4542 14.7698 9.80906C14.6369 9.54341 14.3654 9.3756 14.0684 9.3756H11.6793C11.6753 9.37551 11.6713 9.37547 11.6673 9.37546C11.6626 9.37545 11.6579 9.3755 11.6532 9.3756H9.70549C9.43344 8.41372 8.54907 7.70893 7.50009 7.70893ZM6.45842 10.0006C6.45842 9.4253 6.92479 8.95893 7.50009 8.95893C8.07539 8.95893 8.54176 9.4253 8.54176 10.0006C8.54176 10.5759 8.07539 11.0423 7.50009 11.0423C6.92479 11.0423 6.45842 10.5759 6.45842 10.0006Z" fill="#324EEF" style="fill:#324EEF;fill:color(display-p3 0.1953 0.3072 0.9375);fill-opacity:1;"></path><path fill-rule="evenodd" clip-rule="evenodd" d="M10.2377 0.85941C10.0794 0.851551 9.92079 0.851551 9.76248 0.85941C9.15135 0.889752 8.58871 1.06733 7.9615 1.35839C7.35089 1.64175 6.64137 2.0514 5.74373 2.56965L5.69289 2.59901C4.79524 3.11726 4.08571 3.5269 3.53502 3.91402C2.96934 4.31167 2.53424 4.71014 2.20239 5.22423C2.11643 5.3574 2.03713 5.49475 1.96479 5.63578C1.6855 6.1802 1.55796 6.75625 1.49642 7.44497C1.43651 8.11544 1.43652 8.93474 1.43652 9.97125V10.0299C1.43652 11.0665 1.43651 11.8857 1.49642 12.5562C1.55796 13.2449 1.6855 13.821 1.96479 14.3654C2.03713 14.5064 2.11643 14.6438 2.20239 14.777C2.53424 15.291 2.96934 15.6895 3.53502 16.0872C4.08569 16.4743 4.79519 16.8839 5.69279 17.4021L5.74371 17.4315C6.64136 17.9498 7.35089 18.3594 7.9615 18.6428C8.58871 18.9339 9.15135 19.1114 9.76248 19.1418C9.92079 19.1496 10.0794 19.1496 10.2377 19.1418C10.8488 19.1114 11.4115 18.9339 12.0387 18.6428C12.6493 18.3594 13.3588 17.9498 14.2565 17.4315L14.3073 17.4022C15.205 16.8839 15.9145 16.4743 16.4652 16.0872C17.0308 15.6895 17.4659 15.291 17.7978 14.777C17.8837 14.6438 17.963 14.5064 18.0354 14.3654C18.3147 13.821 18.4422 13.2449 18.5038 12.5562C18.5637 11.8858 18.5637 11.0665 18.5637 10.03V9.97125C18.5637 8.93477 18.5637 8.11543 18.5038 7.44497C18.4422 6.75625 18.3147 6.1802 18.0354 5.63578C17.963 5.49475 17.8837 5.3574 17.7978 5.22423C17.4659 4.71014 17.0308 4.31167 16.4652 3.91402C15.9145 3.5269 15.2049 3.11726 14.3073 2.59901L14.2564 2.56965C13.3588 2.0514 12.6493 1.64175 12.0387 1.35839C11.4115 1.06733 10.8488 0.889752 10.2377 0.85941ZM9.82447 2.10787C9.94148 2.10206 10.0587 2.10206 10.1757 2.10787C10.5697 2.12744 10.9693 2.24015 11.5125 2.49225C12.0666 2.74939 12.7282 3.1307 13.6569 3.66686C14.5855 4.20302 15.2466 4.58533 15.7463 4.93663C16.2362 5.28105 16.5336 5.57069 16.7476 5.90214C16.8111 6.00057 16.8697 6.10209 16.9232 6.20633C17.1033 6.55734 17.2054 6.9597 17.2587 7.55622C17.3131 8.16465 17.3137 8.92827 17.3137 10.0006C17.3137 11.0729 17.3131 11.8365 17.2587 12.445C17.2054 13.0415 17.1033 13.4438 16.9232 13.7949C16.8697 13.8991 16.8111 14.0006 16.7476 14.0991C16.5336 14.4305 16.2362 14.7201 15.7463 15.0646C15.2466 15.4159 14.5855 15.7982 13.6569 16.3343C12.7282 16.8705 12.0666 17.2518 11.5125 17.5089C10.9693 17.761 10.5697 17.8738 10.1757 17.8933C10.0587 17.8991 9.94148 17.8991 9.82447 17.8933C9.43044 17.8738 9.03092 17.761 8.48767 17.5089C7.93357 17.2518 7.27197 16.8705 6.34331 16.3343C5.41465 15.7982 4.75362 15.4159 4.25388 15.0646C3.76393 14.7201 3.46655 14.4305 3.2526 14.0991C3.18907 14.0006 3.13045 13.8991 3.07698 13.7949C2.89691 13.4438 2.79476 13.0415 2.74146 12.445C2.6871 11.8365 2.68652 11.0729 2.68652 10.0006C2.68652 8.92827 2.6871 8.16465 2.74146 7.55622C2.79476 6.9597 2.89691 6.55734 3.07698 6.20633C3.13045 6.10209 3.18907 6.00057 3.2526 5.90214C3.46655 5.57069 3.76393 5.28105 4.25388 4.93663C4.75362 4.58533 5.41465 4.20302 6.34331 3.66686C7.27197 3.1307 7.93357 2.74939 8.48767 2.49225C9.03092 2.24015 9.43044 2.12744 9.82447 2.10787Z" fill="#324EEF" style="fill:#324EEF;fill:color(display-p3 0.1953 0.3072 0.9375);fill-opacity:1;"></path></svg> 