<?xml version="1.0" encoding="UTF-8"?> <svg xmlns="http://www.w3.org/2000/svg" width="20" height="20" viewBox="0 0 20 20" fill="none"><path d="M10.8333 7.70833C10.4882 7.70833 10.2083 7.98816 10.2083 8.33333C10.2083 8.67851 10.4882 8.95833 10.8333 8.95833H13.3333C13.6785 8.95833 13.9583 8.67851 13.9583 8.33333C13.9583 7.98816 13.6785 7.70833 13.3333 7.70833H10.8333Z" fill="#324EEF" style="fill:#324EEF;fill:color(display-p3 0.1953 0.3072 0.9375);fill-opacity:1;"></path><path d="M6.66667 11.0417C6.32149 11.0417 6.04167 11.3215 6.04167 11.6667C6.04167 12.0118 6.32149 12.2917 6.66667 12.2917H13.3333C13.6785 12.2917 13.9583 12.0118 13.9583 11.6667C13.9583 11.3215 13.6785 11.0417 13.3333 11.0417H6.66667Z" fill="#324EEF" style="fill:#324EEF;fill:color(display-p3 0.1953 0.3072 0.9375);fill-opacity:1;"></path><path fill-rule="evenodd" clip-rule="evenodd" d="M16.1498 2.79013C15.4779 2.30194 14.6909 2.08334 13.7196 1.97811C12.7678 1.87499 11.5682 1.87499 10.0377 1.875H9.99077C9.02407 1.875 8.19293 1.875 7.4786 1.89947C5.9174 1.95296 4.76991 2.12191 3.8502 2.79013C3.44341 3.08567 3.08567 3.44341 2.79013 3.8502C2.12191 4.76991 1.95296 5.9174 1.89947 7.4786C1.875 8.19294 1.875 9.02409 1.875 9.99082V10.0377C1.87499 11.5682 1.87499 12.7678 1.97811 13.7196C2.08334 14.6909 2.30194 15.4779 2.79013 16.1498C3.08567 16.5566 3.44341 16.9143 3.8502 17.2099C4.52213 17.6981 5.30912 17.9167 6.2804 18.0219C7.23216 18.125 8.4318 18.125 9.96221 18.125H10.0377C11.5681 18.125 12.7678 18.125 13.7196 18.0219C14.6909 17.9167 15.4779 17.6981 16.1498 17.2099C16.5566 16.9143 16.9143 16.5566 17.2099 16.1498C17.6981 15.4779 17.9167 14.6909 18.0219 13.7196C18.125 12.7678 18.125 11.5682 18.125 10.0378V9.96227C18.125 8.43187 18.125 7.23216 18.0219 6.2804C17.9167 5.30912 17.6981 4.52213 17.2099 3.8502C16.9143 3.44341 16.5566 3.08568 16.1498 2.79013ZM10 3.125C11.5763 3.125 12.7083 3.12586 13.585 3.22083C14.4499 3.31454 14.9917 3.49383 15.4151 3.8014C15.7157 4.01985 15.9802 4.28426 16.1986 4.58493C16.5062 5.00826 16.6855 5.55011 16.7792 6.41504C16.8741 7.29166 16.875 8.42369 16.875 10C16.875 11.5763 16.8741 12.7083 16.7792 13.585C16.6855 14.4499 16.5062 14.9917 16.1986 15.4151C15.9802 15.7157 15.7157 15.9802 15.4151 16.1986C14.9917 16.5062 14.4499 16.6855 13.585 16.7792C12.7083 16.8741 11.5763 16.875 10 16.875C8.42369 16.875 7.29166 16.8741 6.41504 16.7792C5.55011 16.6855 5.00826 16.5062 4.58493 16.1986C4.28426 15.9802 4.01985 15.7157 3.8014 15.4151C3.49383 14.9917 3.31454 14.4499 3.22083 13.585C3.12586 12.7083 3.125 11.5763 3.125 10C3.125 9.29304 3.12504 8.67351 3.13401 8.12348C3.52956 8.11984 3.82074 8.10753 4.08292 8.06601C6.13323 7.74127 7.74127 6.13323 8.06601 4.08292C8.10753 3.82074 8.11984 3.52956 8.12348 3.13401C8.67351 3.12504 9.29304 3.125 10 3.125ZM3.88737 6.8314C3.71651 6.85846 3.51865 6.86878 3.1812 6.87268C3.25934 5.73906 3.43846 5.08447 3.8014 4.58493C4.01985 4.28426 4.28426 4.01985 4.58493 3.8014C5.08447 3.43846 5.73906 3.25934 6.87268 3.1812C6.86878 3.51865 6.85846 3.71651 6.8314 3.88737C6.59137 5.40282 5.40282 6.59137 3.88737 6.8314Z" fill="#324EEF" style="fill:#324EEF;fill:color(display-p3 0.1953 0.3072 0.9375);fill-opacity:1;"></path></svg> 