<?xml version="1.0" encoding="UTF-8"?> <svg xmlns="http://www.w3.org/2000/svg" width="20" height="20" viewBox="0 0 20 20" fill="none"><path d="M6.66667 12.708C6.32149 12.708 6.04167 12.9879 6.04167 13.333C6.04167 13.6782 6.32149 13.958 6.66667 13.958H13.3333C13.6785 13.958 13.9583 13.6782 13.9583 13.333C13.9583 12.9879 13.6785 12.708 13.3333 12.708H6.66667Z" fill="#324EEF" style="fill:#324EEF;fill:color(display-p3 0.1953 0.3072 0.9375);fill-opacity:1;"></path><path fill-rule="evenodd" clip-rule="evenodd" d="M9.86518 0.208021C8.44328 0.207798 7.5756 0.207661 6.85267 0.442556C5.39391 0.916538 4.25021 2.06023 3.77623 3.519C3.75433 3.5864 3.73455 3.65455 3.71668 3.72377C3.36483 3.99866 3.0529 4.32156 2.79013 4.68323C2.30194 5.35517 2.08334 6.14215 1.97811 7.11343C1.87499 8.06521 1.87499 9.26488 1.875 10.7953V10.8707C1.87499 12.4012 1.87499 13.6009 1.97811 14.5526C2.08334 15.5239 2.30194 16.3109 2.79013 16.9828C3.08568 17.3896 3.44341 17.7474 3.8502 18.0429C4.52213 18.5311 5.30912 18.7497 6.2804 18.8549C7.23216 18.958 8.4318 18.958 9.96221 18.958H10.0377C11.5681 18.958 12.7678 18.958 13.7196 18.8549C14.6909 18.7497 15.4779 18.5311 16.1498 18.0429C16.5566 17.7474 16.9143 17.3896 17.2099 16.9828C17.6981 16.3109 17.9167 15.5239 18.0219 14.5526C18.125 13.6009 18.125 12.4012 18.125 10.8708V10.7953C18.125 9.2649 18.125 8.0652 18.0219 7.11343C17.9167 6.14215 17.6981 5.35517 17.2099 4.68323C16.9471 4.3216 16.6352 3.99873 16.2834 3.72386C16.2656 3.65461 16.2458 3.58643 16.2239 3.519C15.7499 2.06023 14.6062 0.916538 13.1474 0.442556C12.4245 0.207661 11.5568 0.207798 10.1349 0.208021H9.86518ZM6.33182 2.80569C6.02033 2.83796 5.72754 2.88146 5.45127 2.94129C5.88639 2.33214 6.50935 1.86844 7.23894 1.63138C7.7487 1.46575 8.40033 1.45804 10 1.45804C11.5998 1.45804 12.2514 1.46575 12.7611 1.63138C13.4907 1.86844 14.1137 2.33216 14.5488 2.94131C14.2726 2.88148 13.9798 2.83797 13.6683 2.8057C12.7253 2.70802 11.5406 2.70803 10.0357 2.70804H9.96432C8.45946 2.70803 7.27482 2.70802 6.33182 2.80569ZM4.63079 4.60194C5.05434 4.30936 5.59914 4.13827 6.46059 4.04904C7.33173 3.95882 8.4518 3.95804 10 3.95804C11.5483 3.95804 12.6683 3.95882 13.5395 4.04905C14.401 4.13828 14.9457 4.30939 15.3693 4.602C15.3712 4.60332 15.3731 4.60465 15.3751 4.60599C15.3885 4.61532 15.4018 4.6248 15.4151 4.63443C15.7157 4.85288 15.9802 5.11729 16.1986 5.41796C16.5062 5.8413 16.6855 6.38315 16.7792 7.24807C16.8741 8.1247 16.875 9.25673 16.875 10.833C16.875 12.4093 16.8741 13.5414 16.7792 14.418C16.6855 15.2829 16.5062 15.8248 16.1986 16.2481C15.9802 16.5488 15.7157 16.8132 15.4151 17.0316C14.9917 17.3392 14.4499 17.5185 13.585 17.6122C12.7083 17.7072 11.5763 17.708 10 17.708C8.42369 17.708 7.29166 17.7072 6.41504 17.6122C5.55011 17.5185 5.00826 17.3392 4.58493 17.0316C4.28426 16.8132 4.01985 16.5488 3.8014 16.2481C3.49383 15.8248 3.31454 15.2829 3.22083 14.418C3.12586 13.5414 3.125 12.4093 3.125 10.833C3.125 9.25673 3.12586 8.1247 3.22083 7.24807C3.31454 6.38315 3.49383 5.8413 3.8014 5.41796C4.01985 5.11729 4.28426 4.85288 4.58493 4.63443C4.60011 4.6234 4.61539 4.61257 4.63079 4.60194Z" fill="#324EEF" style="fill:#324EEF;fill:color(display-p3 0.1953 0.3072 0.9375);fill-opacity:1;"></path></svg> 