<?xml version="1.0" encoding="UTF-8"?> <svg xmlns="http://www.w3.org/2000/svg" width="20" height="20" viewBox="0 0 20 20" fill="none"><path d="M10.625 5.83333C10.625 5.48816 10.3452 5.20833 10 5.20833C9.65482 5.20833 9.375 5.48816 9.375 5.83333V8.84868L7.31682 6.7905C7.07274 6.54642 6.67702 6.54642 6.43294 6.7905C6.18886 7.03458 6.18886 7.43031 6.43294 7.67439L8.13355 9.375H5.83333C5.48816 9.375 5.20833 9.65482 5.20833 10C5.20833 10.3452 5.48816 10.625 5.83333 10.625H8.49112L6.43306 12.6831C6.18898 12.9271 6.18898 13.3229 6.43306 13.5669C6.67714 13.811 7.07286 13.811 7.31694 13.5669L9.375 11.5089V14.1667C9.375 14.5118 9.65482 14.7917 10 14.7917C10.3452 14.7917 10.625 14.5118 10.625 14.1667V11.8664L12.3255 13.5669C12.5696 13.811 12.9653 13.811 13.2094 13.5669C13.4535 13.3229 13.4535 12.9271 13.2094 12.6831L11.1513 10.625H14.1667C14.5118 10.625 14.7917 10.3452 14.7917 10C14.7917 9.65482 14.5118 9.375 14.1667 9.375H11.5089L13.2095 7.67439C13.4536 7.43031 13.4536 7.03458 13.2095 6.7905C12.9654 6.54642 12.5697 6.54642 12.3256 6.7905L10.625 8.49112V5.83333Z" fill="#324EEF" style="fill:#324EEF;fill:color(display-p3 0.1953 0.3072 0.9375);fill-opacity:1;"></path><path fill-rule="evenodd" clip-rule="evenodd" d="M13.7196 1.97811C12.7678 1.87499 11.5682 1.87499 10.0377 1.875H9.96229C8.43185 1.87499 7.23218 1.87499 6.2804 1.97811C5.30912 2.08334 4.52213 2.30194 3.8502 2.79013C3.44341 3.08568 3.08568 3.44341 2.79013 3.8502C2.30194 4.52213 2.08334 5.30912 1.97811 6.2804C1.87499 7.23218 1.87499 8.43185 1.875 9.96229V10.0377C1.87499 11.5682 1.87499 12.7678 1.97811 13.7196C2.08334 14.6909 2.30194 15.4779 2.79013 16.1498C3.08567 16.5566 3.44341 16.9143 3.8502 17.2099C4.52213 17.6981 5.30912 17.9167 6.2804 18.0219C7.23216 18.125 8.4318 18.125 9.96221 18.125H10.0377C11.5681 18.125 12.7678 18.125 13.7196 18.0219C14.6909 17.9167 15.4779 17.6981 16.1498 17.2099C16.5566 16.9143 16.9143 16.5566 17.2099 16.1498C17.6981 15.4779 17.9167 14.6909 18.0219 13.7196C18.125 12.7678 18.125 11.5682 18.125 10.0378V9.96227C18.125 8.43187 18.125 7.23216 18.0219 6.2804C17.9167 5.30912 17.6981 4.52213 17.2099 3.8502C16.9143 3.44341 16.5566 3.08567 16.1498 2.79013C15.4779 2.30194 14.6909 2.08334 13.7196 1.97811ZM4.58493 3.8014C5.00826 3.49383 5.55011 3.31454 6.41504 3.22083C7.29166 3.12586 8.42369 3.125 10 3.125C11.5763 3.125 12.7083 3.12586 13.585 3.22083C14.4499 3.31454 14.9917 3.49383 15.4151 3.8014C15.7157 4.01985 15.9802 4.28426 16.1986 4.58493C16.5062 5.00826 16.6855 5.55011 16.7792 6.41504C16.8741 7.29166 16.875 8.42369 16.875 10C16.875 11.5763 16.8741 12.7083 16.7792 13.585C16.6855 14.4499 16.5062 14.9917 16.1986 15.4151C15.9802 15.7157 15.7157 15.9802 15.4151 16.1986C14.9917 16.5062 14.4499 16.6855 13.585 16.7792C12.7083 16.8741 11.5763 16.875 10 16.875C8.42369 16.875 7.29166 16.8741 6.41504 16.7792C5.55011 16.6855 5.00826 16.5062 4.58493 16.1986C4.28426 15.9802 4.01985 15.7157 3.8014 15.4151C3.49383 14.9917 3.31454 14.4499 3.22083 13.585C3.12586 12.7083 3.125 11.5763 3.125 10C3.125 8.42369 3.12586 7.29166 3.22083 6.41504C3.31454 5.55011 3.49383 5.00826 3.8014 4.58493C4.01985 4.28426 4.28426 4.01985 4.58493 3.8014Z" fill="#324EEF" style="fill:#324EEF;fill:color(display-p3 0.1953 0.3072 0.9375);fill-opacity:1;"></path></svg> 