<?xml version="1.0" encoding="UTF-8"?> <svg xmlns="http://www.w3.org/2000/svg" width="81" height="80" viewBox="0 0 81 80" fill="none"><path fill-rule="evenodd" clip-rule="evenodd" d="M40.2015 4.16797C20.4113 4.16797 4.36816 20.2111 4.36816 40.0013C4.36816 59.7915 20.4113 75.8346 40.2015 75.8346C42.6526 75.8346 45.0487 75.5882 47.3655 75.1179C61.4103 72.2669 72.4671 61.2101 75.3181 47.1653C75.7884 44.8485 76.0348 42.4524 76.0348 40.0013C76.0348 20.2111 59.9917 4.16797 40.2015 4.16797ZM9.36816 40.0013C9.36816 22.9725 23.1727 9.16797 40.2015 9.16797C57.2303 9.16797 71.0348 22.9725 71.0348 40.0013C71.0348 41.4162 70.9397 42.8077 70.7557 44.17C67.3261 44.1779 64.5173 44.2178 62.1724 44.4212C59.334 44.6675 56.9746 45.166 54.8333 46.257C51.2269 48.0946 48.2948 51.0267 46.4572 54.6331C45.3662 56.7745 44.8677 59.1338 44.6214 61.9722C44.418 64.3171 44.3781 67.1259 44.3702 70.5555C43.0078 70.7395 41.6164 70.8346 40.2015 70.8346C23.1727 70.8346 9.36816 57.0301 9.36816 40.0013ZM62.6046 49.4025C64.497 49.2383 66.7685 49.1889 69.648 49.1742C66.6451 58.8244 59.0246 66.4449 49.3744 69.4478C49.3891 66.5683 49.4385 64.2968 49.6027 62.4044C49.8212 59.8857 50.2305 58.2411 50.9122 56.9031C52.2704 54.2375 54.4377 52.0703 57.1033 50.712C58.4413 50.0303 60.0859 49.621 62.6046 49.4025Z" fill="#191921" style="fill:#191921;fill:color(display-p3 0.0980 0.0980 0.1294);fill-opacity:1;"></path></svg> 