<?xml version="1.0" encoding="UTF-8"?> <svg xmlns="http://www.w3.org/2000/svg" fill="none" viewBox="0 0 20 20"><path fill="#324EEF" fill-rule="evenodd" d="M5.8 1.88h8.53a2.13 2.13 0 0 1 1.2 3.87l-.23.17a1.42 1.42 0 0 0 0 2.33l.23.16a2.13 2.13 0 0 1-1.2 3.88H4.79v5.21a.62.62 0 1 1-1.25 0V4.13c0-.36 0-.7.04-.96.03-.3.13-.61.39-.87.25-.26.57-.35.86-.39.27-.04.6-.04.96-.03Zm-1.01 9.16h9.54a.88.88 0 0 0 .5-1.6l-.24-.16a2.67 2.67 0 0 1 0-4.4l.24-.16a.88.88 0 0 0-.5-1.6h-8.5a7.2 7.2 0 0 0-.98.06v.02c-.01.01-.03.06-.04.14a7.2 7.2 0 0 0-.02.83v6.87Z" clip-rule="evenodd"></path></svg> 