<?xml version="1.0" encoding="UTF-8"?> <svg xmlns="http://www.w3.org/2000/svg" width="81" height="80" viewBox="0 0 81 80" fill="none"><path fill-rule="evenodd" clip-rule="evenodd" d="M61.5532 7.73537C58.672 7.49997 55.0873 7.49998 50.5149 7.5H30.2911C25.7187 7.49998 22.1339 7.49997 19.2528 7.73537C16.319 7.97507 13.8953 8.47126 11.7015 9.58904C8.09507 11.4266 5.16294 14.3587 3.32537 17.9652C2.20759 20.159 1.7114 22.5827 1.4717 25.5165C1.2363 28.3976 1.23631 31.9824 1.23633 36.5548V36.7785C1.23631 41.3509 1.2363 44.9357 1.4717 47.8169C1.7114 50.7507 2.20759 53.1744 3.32537 55.3682C5.16294 58.9746 8.09507 61.9067 11.7015 63.7443C13.8953 64.8621 16.319 65.3583 19.2528 65.598C22.1339 65.8334 25.7186 65.8333 30.2909 65.8333H37.903V71.9465C35.8218 72.0921 33.7502 72.4196 31.7121 72.9291L26.4633 74.2413C25.1238 74.5762 24.3094 75.9335 24.6443 77.273C24.9792 78.6125 26.3365 79.4269 27.676 79.092L32.9248 77.7798C35.3798 77.1661 37.8914 76.8592 40.403 76.8592C42.9146 76.8592 45.4262 77.1661 47.8812 77.7798L53.13 79.092C54.4695 79.4269 55.8268 78.6125 56.1617 77.273C56.4966 75.9335 55.6822 74.5762 54.3427 74.2413L49.0939 72.9291C47.0558 72.4196 44.9842 72.0921 42.903 71.9465V65.8333H50.5149C55.0872 65.8333 58.6721 65.8334 61.5532 65.598C64.487 65.3583 66.9107 64.8621 69.1045 63.7443C72.7109 61.9067 75.6431 58.9746 77.4806 55.3682C78.5984 53.1744 79.0946 50.7507 79.3343 47.8169C79.5697 44.9358 79.5697 41.351 79.5697 36.7788V36.5547C79.5697 31.9825 79.5697 28.3976 79.3343 25.5165C79.0946 22.5826 78.5984 20.159 77.4806 17.9652C75.6431 14.3587 72.7109 11.4266 69.1045 9.58904C66.9107 8.47126 64.487 7.97507 61.5532 7.73537ZM61.146 60.6146C58.4923 60.8314 55.1114 60.8333 50.403 60.8333H30.403C25.6946 60.8333 22.3137 60.8314 19.6599 60.6146C17.0353 60.4001 15.3429 59.988 13.9715 59.2893C11.3058 57.9311 9.13861 55.7638 7.7804 53.0982C7.08163 51.7268 6.66953 50.0343 6.4551 47.4097C6.23827 44.7559 6.23633 41.375 6.23633 36.6667C6.23633 31.9583 6.23827 28.5774 6.4551 25.9236C6.66953 23.299 7.08163 21.6066 7.7804 20.2351C9.13861 17.5695 11.3058 15.4023 13.9715 14.0441C15.3429 13.3453 17.0353 12.9332 19.6599 12.7188C22.3137 12.5019 25.6946 12.5 30.403 12.5H50.403C55.1114 12.5 58.4923 12.5019 61.146 12.7188C63.7706 12.9332 65.4631 13.3453 66.8345 14.0441C69.5002 15.4023 71.6674 17.5695 73.0256 20.2351C73.7244 21.6066 74.1365 23.299 74.3509 25.9236C74.5677 28.5774 74.5697 31.9583 74.5697 36.6667C74.5697 41.375 74.5677 44.7559 74.3509 47.4097C74.1365 50.0343 73.7244 51.7268 73.0256 53.0982C71.6674 55.7638 69.5002 57.9311 66.8345 59.2893C65.4631 59.988 63.7706 60.4001 61.146 60.6146Z" fill="#191921" style="fill:#191921;fill:color(display-p3 0.0980 0.0980 0.1294);fill-opacity:1;"></path></svg> 