<?xml version="1.0" encoding="UTF-8"?> <svg xmlns="http://www.w3.org/2000/svg" fill="none" viewBox="0 0 84 84"><path stroke="gray" d="M17.44 1.3h-16v16M17.44 83.3h-16v-16M67.44 1.3h16v16M67.44 83.3h16v-16"></path><path fill="#fff" d="M14.41 71.42a4.02 4.02 0 0 1-3.02-1.26 4.43 4.43 0 0 1-1.2-3.22c0-.86.18-1.62.54-2.29a3.9 3.9 0 0 1 1.49-1.55 4.23 4.23 0 0 1 2.18-.56c.83 0 1.57.19 2.2.56a3.9 3.9 0 0 1 1.49 1.55c.36.67.55 1.43.55 2.3 0 .65-.11 1.25-.33 1.8a4.07 4.07 0 0 1-3.9 2.66Zm0-1.08a2.72 2.72 0 0 0 2.55-1.64c.25-.52.38-1.1.38-1.77 0-.65-.12-1.23-.37-1.73a2.77 2.77 0 0 0-2.57-1.58c-.58 0-1.1.14-1.53.42a2.8 2.8 0 0 0-1.02 1.15c-.24.5-.36 1.08-.36 1.74 0 .67.12 1.27.37 1.78s.59.91 1.02 1.2c.44.29.95.43 1.52.43Zm9.9.96v-6.7c0-.63.17-1.1.52-1.44.35-.33.9-.5 1.62-.5h2.33v1.02h-2.23c-.35 0-.6.09-.77.26-.16.17-.24.41-.24.72v6.64H24.3Zm-3.9 0v-6.7c0-.63.17-1.1.52-1.44.35-.33.88-.5 1.58-.5.16 0 .3 0 .4.02.1.02.2.04.28.08v1a2.16 2.16 0 0 0-.53-.08c-.35 0-.61.09-.77.26-.16.17-.24.41-.24.72v6.64H20.4Zm-1.18-5.08v-1.04h7.62v1.04h-7.62Zm8.97 5.08v-8.64h1.24v8.64H28.2Zm2.82 0v-6.12h1.24v6.12h-1.24Zm-.06-7.32v-1.4h1.38v1.4h-1.38Zm2.94 7.32v-6.12h1.18v1.44h.06v4.68H33.9Zm4.34 0v-3.94c0-.42-.1-.74-.32-.94-.21-.21-.52-.32-.94-.32a1.77 1.77 0 0 0-1.84 1.9L35 66.54c.2-.46.5-.82.92-1.08.42-.27.9-.4 1.45-.4.66 0 1.18.18 1.55.55.38.37.57.86.57 1.47v4.22h-1.24Zm5.45.12a2.9 2.9 0 0 1-2.72-1.54 3.38 3.38 0 0 1-.4-1.65c0-.63.13-1.19.39-1.66a2.8 2.8 0 0 1 1.1-1.11c.47-.27 1.01-.4 1.62-.4.6 0 1.1.13 1.54.38.44.25.77.6 1 1.05a3.33 3.33 0 0 1 .35 1.87c0 .08 0 .16-.02.25h-5.14v-.93h4.26l-.3.37c0-.66-.16-1.16-.45-1.5-.3-.35-.71-.52-1.24-.52-.57 0-1.02.2-1.35.6-.33.37-.5.91-.5 1.6 0 .7.17 1.24.5 1.63.33.4.8.59 1.39.59.36 0 .67-.07.93-.22.27-.15.46-.37.6-.66h1.17c-.2.58-.54 1.03-1.02 1.36-.47.33-1.04.5-1.7.5ZM50 71.3v-8.64h1.27v8.64H50Zm1.01-4.49 4.28-4.15h1.74l-4.42 4.15H51Zm4.48 4.5-4.5-4.5h1.62l4.66 4.5H55.5Zm4.81.11a2.9 2.9 0 0 1-2.72-1.54 3.38 3.38 0 0 1-.4-1.65c0-.63.13-1.19.39-1.66a2.8 2.8 0 0 1 1.1-1.11c.47-.27 1.01-.4 1.62-.4.6 0 1.1.13 1.54.38.44.25.77.6 1 1.05a3.33 3.33 0 0 1 .35 1.87c0 .08 0 .16-.02.25h-5.14v-.93h4.26l-.3.37c0-.66-.16-1.16-.45-1.5-.3-.35-.71-.52-1.24-.52-.57 0-1.02.2-1.36.6-.32.37-.49.91-.49 1.6 0 .7.17 1.24.5 1.63.33.4.8.59 1.39.59.36 0 .67-.07.93-.22.27-.15.46-.37.6-.66h1.17c-.2.58-.54 1.03-1.02 1.36-.48.33-1.04.5-1.7.5Zm4.34 2.34 1.48-3.37.25-.4 1.86-4.8h1.3l-3.6 8.57h-1.29Zm1.42-2.46-2.62-6.12h1.36l2.22 5.5-.96.62Zm6.43.12c-.8 0-1.44-.18-1.91-.53a2.01 2.01 0 0 1-.8-1.49h1.15c.05.36.21.63.48.82.27.18.64.28 1.1.28.4 0 .72-.08.94-.22a.7.7 0 0 0 .32-.61c0-.2-.06-.35-.2-.48-.11-.14-.35-.25-.71-.34l-.99-.23a2.97 2.97 0 0 1-1.38-.67c-.3-.3-.44-.67-.44-1.11 0-.56.2-.99.61-1.3.42-.32.99-.48 1.7-.48.72 0 1.29.16 1.72.48.44.32.69.77.75 1.34h-1.16a.94.94 0 0 0-.42-.66 1.56 1.56 0 0 0-.92-.24c-.37 0-.65.07-.85.2-.2.14-.29.32-.29.55 0 .2.07.35.22.48s.4.23.74.32l1 .25c.6.15 1.03.38 1.33.71.3.32.44.71.44 1.17 0 .55-.21.98-.65 1.3-.42.3-1.02.46-1.78.46Z"></path><g clip-path="url(#clip0_572_1207)"><path fill="#fff" d="M62.03 23.93A16 16 0 0 0 49.71 11.6a22.35 22.35 0 0 0-4.34-.34v4.58c1.85.03 2.99.11 3.97.37a11.43 11.43 0 0 1 8.08 8.09c.18.67.28 1.43.33 2.45H56.2a10.24 10.24 0 0 0-.52-2.88 9.9 9.9 0 0 0-5.92-5.92c-1.15-.42-2.48-.55-4.4-.59v4.58c.48.01.9.03 1.3.06.96.08 1.6.23 2.13.5 1 .51 1.82 1.33 2.33 2.33.27.53.42 1.17.5 2.14.03.39.05.82.06 1.3h1.53l-.07-1.42a7.07 7.07 0 0 0-.66-2.7 6.86 6.86 0 0 0-3-3 6.93 6.93 0 0 0-2.6-.66v-1.54c.99.07 1.71.2 2.36.43a8.38 8.38 0 0 1 5 5c.34.94.45 2.04.5 3.89h4.57a18 18 0 0 0-.43-4.37 12.95 12.95 0 0 0-9.16-9.16c-.81-.22-1.7-.33-2.84-.38v-1.54c1.03.05 1.8.13 2.5.27a14.48 14.48 0 0 1 11.15 11.15c.21 1.01.28 2.17.3 4.03h1.53c-.02-1.9-.1-3.2-.34-4.34ZM49.7 51.03a16 16 0 0 0 12.33-12.32c.24-1.15.32-2.44.34-4.35H57.8c-.02 1.86-.11 3-.37 3.98a11.43 11.43 0 0 1-8.08 8.08c-.68.18-1.44.28-2.45.33v-1.54c1.15-.08 2.06-.23 2.88-.52a9.9 9.9 0 0 0 5.92-5.92c.41-1.15.54-2.48.58-4.4l-1.53-.02v.01H51.7c0 .49-.03.92-.06 1.3a5.59 5.59 0 0 1-.5 2.14 5.33 5.33 0 0 1-2.33 2.33c-.53.27-1.17.42-2.14.5l-1.3.07v1.52c.52-.01 1-.03 1.43-.07a7.07 7.07 0 0 0 2.7-.66 6.86 6.86 0 0 0 3-3c.38-.75.56-1.58.65-2.6h1.54c-.07.99-.2 1.71-.43 2.36a8.38 8.38 0 0 1-5 5c-.94.34-2.04.46-3.89.5v4.57a18 18 0 0 0 4.37-.43 12.95 12.95 0 0 0 9.16-9.16c.22-.81.33-1.7.38-2.84h1.54c-.04 1.03-.12 1.8-.27 2.5A14.48 14.48 0 0 1 49.4 49.54c-1 .21-2.16.28-4.02.3v1.53c1.9-.02 3.2-.1 4.34-.34ZM34.93 51.03A16 16 0 0 1 22.6 38.71a22.35 22.35 0 0 1-.34-4.35h1.53c.02 1.86.1 3.02.3 4.03a14.48 14.48 0 0 0 11.15 11.15c.7.15 1.48.23 2.5.27v-1.53a13.42 13.42 0 0 1-2.84-.39 12.95 12.95 0 0 1-9.16-9.16 18 18 0 0 1-.43-4.37h4.58c.04 1.85.15 2.95.49 3.89a8.38 8.38 0 0 0 5 5c.65.24 1.37.36 2.36.43v-1.54a6.93 6.93 0 0 1-2.6-.65 6.86 6.86 0 0 1-3-3 7.07 7.07 0 0 1-.66-2.7c-.04-.43-.06-.9-.07-1.43h1.53c0 .49.03.92.06 1.3.08.97.23 1.62.5 2.14.51 1 1.33 1.82 2.33 2.33.53.27 1.17.42 2.14.5l1.3.07v4.57c-1.93-.04-3.26-.16-4.4-.58a9.9 9.9 0 0 1-5.93-5.92c-.3-.82-.44-1.73-.52-2.88h-1.54c.05 1.01.15 1.77.33 2.45a11.43 11.43 0 0 0 8.08 8.08c.98.26 2.12.35 3.98.38v4.57c-1.9-.02-3.2-.1-4.34-.34ZM34.93 11.6A16 16 0 0 0 22.6 23.93a22.35 22.35 0 0 0-.34 4.34h4.58c.02-1.86.11-3 .37-3.97a11.43 11.43 0 0 1 8.08-8.09c.68-.18 1.44-.27 2.45-.33v1.54c-1.15.08-2.06.23-2.88.53a9.9 9.9 0 0 0-5.92 5.92c-.41 1.14-.54 2.47-.58 4.4h4.58c0-.48.03-.91.06-1.3.08-.97.23-1.61.5-2.14.51-1 1.33-1.82 2.33-2.33a5.59 5.59 0 0 1 2.14-.5c.38-.03.81-.05 1.3-.06V20.4l-1.43.07a7.07 7.07 0 0 0-2.7.66 6.86 6.86 0 0 0-3 3 6.93 6.93 0 0 0-.65 2.6h-1.54c.07-.99.2-1.71.43-2.35a8.38 8.38 0 0 1 5-5.01c.94-.34 2.04-.45 3.89-.49v-4.58a18 18 0 0 0-4.37.43 12.95 12.95 0 0 0-9.16 9.16c-.22.82-.33 1.71-.38 2.85h-1.53c.04-1.03.12-1.8.26-2.5a14.48 14.48 0 0 1 11.15-11.16c1.01-.21 2.17-.28 4.03-.3v-1.53c-1.9.03-3.2.1-4.34.34Z"></path><rect width="6.1" height="6.1" x="39.27" y="28.27" stroke="#fff" stroke-width="1.52" rx="2.03"></rect></g><defs><clipPath id="clip0_572_1207"><path fill="#fff" d="M22 11h40.63v40.63H22z"></path></clipPath></defs></svg> 