<?xml version="1.0" encoding="UTF-8"?> <svg xmlns="http://www.w3.org/2000/svg" fill="none" viewBox="0 0 80 80"><path fill="#324EEF" fill-rule="evenodd" d="M40.95 3.44c-.63-.03-1.27-.03-1.9 0-2.44.12-4.7.83-7.2 2-2.45 1.13-5.28 2.77-8.88 4.84l-.2.12c-3.59 2.07-6.43 3.7-8.63 5.26-2.26 1.59-4 3.18-5.33 5.24-.34.53-.66 1.08-.95 1.64a19.02 19.02 0 0 0-1.87 7.24c-.24 2.68-.24 5.96-.24 10.1v.24c0 4.15 0 7.42.24 10.1.24 2.76.75 5.06 1.87 7.24.29.57.6 1.12.95 1.65a19.02 19.02 0 0 0 5.33 5.24c2.2 1.55 5.04 3.19 8.63 5.26l.2.12c3.6 2.07 6.43 3.7 8.88 4.84a19.02 19.02 0 0 0 7.2 2c.63.03 1.27.03 1.9 0 2.45-.12 4.7-.83 7.2-2 2.45-1.13 5.29-2.77 8.88-4.84l.2-.12c3.59-2.07 6.43-3.71 8.63-5.26 2.26-1.6 4-3.19 5.33-5.24.34-.53.66-1.08.95-1.65a19.02 19.02 0 0 0 1.88-7.24c.23-2.68.23-5.95.23-10.1v-.23c0-4.15 0-7.43-.23-10.11a19.02 19.02 0 0 0-1.88-7.24c-.29-.56-.6-1.11-.95-1.64a19.02 19.02 0 0 0-5.33-5.24c-2.2-1.55-5.04-3.2-8.63-5.26l-.2-.12c-3.6-2.07-6.43-3.71-8.88-4.85a19.02 19.02 0 0 0-7.2-2Zm-1.65 5c.47-.03.93-.03 1.4 0 1.58.07 3.18.52 5.35 1.53 2.22 1.03 4.86 2.55 8.58 4.7 3.71 2.14 6.36 3.67 8.36 5.08 1.95 1.37 3.14 2.53 4 3.86.25.4.49.8.7 1.22.72 1.4 1.13 3 1.34 5.4.22 2.43.22 5.48.22 9.77 0 4.3 0 7.35-.22 9.78-.2 2.39-.62 4-1.34 5.4-.21.42-.45.82-.7 1.22-.86 1.32-2.05 2.48-4 3.86-2 1.4-4.65 2.93-8.36 5.08a120.62 120.62 0 0 1-8.58 4.7c-2.17 1-3.77 1.45-5.35 1.53-.47.03-.93.03-1.4 0-1.58-.07-3.18-.53-5.35-1.53a120.65 120.65 0 0 1-8.58-4.7 120.62 120.62 0 0 1-8.35-5.08c-1.96-1.38-3.15-2.54-4.01-3.86-.25-.4-.49-.8-.7-1.22-.72-1.4-1.13-3.01-1.34-5.4a120.6 120.6 0 0 1-.22-9.78c0-4.29 0-7.34.22-9.78.2-2.38.62-4 1.34-5.4.21-.41.45-.82.7-1.21.86-1.33 2.05-2.49 4-3.86 2-1.4 4.65-2.94 8.36-5.08 3.72-2.15 6.36-3.67 8.58-4.7 2.17-1 3.77-1.46 5.35-1.54ZM46.7 37.5h-.03.02Z" clip-rule="evenodd"></path><path fill="#97C1FF" fill-rule="evenodd" d="M20.83 36.67a5.83 5.83 0 0 1 5.84-5.83h5.07a5.83 5.83 0 0 1 5.42 3.66l1.2 3h17.91c1.2 0 2.28.67 2.8 1.74a9.17 9.17 0 0 1 0 8.2l-.17.35a2.5 2.5 0 0 1-4.47-2.24l.18-.35c.42-.84.54-1.8.35-2.7h-4.95a9.17 9.17 0 0 1-.93 4.94l-.18.35a2.5 2.5 0 0 1-4.47-2.24l.18-.35c.42-.84.54-1.8.35-2.7h-6.6l-1.2 3a5.83 5.83 0 0 1-5.42 3.67h-5.07a5.83 5.83 0 0 1-5.84-5.83v-6.67Zm5 0c0-.46.38-.83.84-.83h5.07c.34 0 .65.2.78.52l1.33 3.33a.83.83 0 0 1 0 .62l-1.33 3.34a.83.83 0 0 1-.78.52h-5.07a.83.83 0 0 1-.84-.83v-6.67Z" clip-rule="evenodd"></path></svg> 