<?xml version="1.0" encoding="UTF-8"?> <svg xmlns="http://www.w3.org/2000/svg" width="80" height="80" viewBox="0 0 80 80" fill="none"><path fill-rule="evenodd" clip-rule="evenodd" d="M40.7037 4.18085C40.2354 4.16367 39.7666 4.16367 39.2983 4.18085C36.2071 4.29426 33.4235 5.34542 30.3715 7.09522C27.3973 8.80042 23.9731 11.2882 19.6285 14.4448L19.3924 14.6164C15.0477 17.7729 11.6235 20.2607 9.08266 22.5625C6.47537 24.9244 4.61549 27.2469 3.55238 30.1518C3.39134 30.5919 3.24649 31.0377 3.11812 31.4883C2.27072 34.4633 2.41026 37.4355 3.1313 40.8789C3.83395 44.2345 5.14188 48.2598 6.8014 53.3672L12.5833 71.1619C13.8295 74.9974 17.4037 77.5942 21.4365 77.5942C26.5776 77.5942 30.7453 73.4265 30.7453 68.2854V59.1223C30.7453 56.9746 32.4864 55.2335 34.6341 55.2335H45.3679C47.5156 55.2335 49.2567 56.9746 49.2567 59.1223V68.2854C49.2567 73.4265 53.4244 77.5942 58.5655 77.5942C62.5983 77.5942 66.1725 74.9974 67.4187 71.1619L73.2007 53.367C74.8601 48.2597 76.1681 44.2344 76.8707 40.8789C77.5917 37.4355 77.7313 34.4633 76.8839 31.4883C76.7555 31.0377 76.6107 30.5919 76.4496 30.1518C75.3865 27.2469 73.5266 24.9244 70.9193 22.5625C68.3785 20.2607 64.9543 17.7729 60.6096 14.6164L60.3734 14.4447C56.0288 11.2882 52.6047 8.80041 49.6305 7.09522C46.5785 5.34542 43.7949 4.29426 40.7037 4.18085ZM39.4816 9.17749C39.8278 9.16479 40.1742 9.16479 40.5204 9.17749C42.5051 9.2503 44.4819 9.90688 47.1436 11.4329C49.8562 12.9881 53.064 15.3145 57.5527 18.5757C62.0413 21.8369 65.2452 24.1688 67.5625 26.268C69.8363 28.3279 71.0716 30.005 71.7542 31.8702C71.8732 32.1954 71.9803 32.5249 72.0751 32.8581C72.6192 34.7682 72.6057 36.8511 71.9768 39.8541C71.336 42.9145 70.1147 46.6842 68.4002 51.961L62.6634 69.6169C62.0866 71.3922 60.4322 72.5942 58.5655 72.5942C56.1858 72.5942 54.2567 70.6651 54.2567 68.2854V59.1223C54.2567 54.2131 50.2771 50.2335 45.3679 50.2335H34.6341C29.7249 50.2335 25.7453 54.2131 25.7453 59.1223V68.2854C25.7453 70.6651 23.8162 72.5942 21.4365 72.5942C19.5698 72.5942 17.9154 71.3922 17.3386 69.6169L11.6018 51.961C9.88729 46.6842 8.66599 42.9145 8.02516 39.8541C7.39634 36.8511 7.38276 34.7682 7.92685 32.8581C8.02173 32.525 8.12879 32.1954 8.24783 31.8702C8.93041 30.005 10.1657 28.3279 12.4395 26.268C14.7568 24.1688 17.9607 21.8369 22.4493 18.5757C26.938 15.3145 30.1458 12.9881 32.8584 11.4329C35.5201 9.90688 37.4969 9.2503 39.4816 9.17749Z" fill="#191921" style="fill:#191921;fill:color(display-p3 0.0980 0.0980 0.1294);fill-opacity:1;"></path></svg> 