<?xml version="1.0" encoding="UTF-8"?> <svg xmlns="http://www.w3.org/2000/svg" width="81" height="80" viewBox="0 0 81 80" fill="none"><path d="M43.1001 23.3333C43.1001 21.9526 41.9808 20.8333 40.6001 20.8333C39.2194 20.8333 38.1001 21.9526 38.1001 23.3333V35.3947L29.8674 27.162C28.8911 26.1857 27.3082 26.1857 26.3318 27.162C25.3555 28.1383 25.3555 29.7212 26.3318 30.6975L33.1343 37.5H23.9334C22.5527 37.5 21.4334 38.6193 21.4334 40C21.4334 41.3807 22.5527 42.5 23.9334 42.5H34.5646L26.3323 50.7322C25.356 51.7085 25.356 53.2915 26.3323 54.2678C27.3086 55.2441 28.8916 55.2441 29.8679 54.2678L38.1001 46.0355V56.6667C38.1001 58.0474 39.2194 59.1667 40.6001 59.1667C41.9808 59.1667 43.1001 58.0474 43.1001 56.6667V47.4658L49.9021 54.2678C50.8784 55.2441 52.4613 55.2441 53.4376 54.2678C54.4139 53.2915 54.4139 51.7085 53.4376 50.7322L45.2054 42.5H57.2668C58.6475 42.5 59.7668 41.3807 59.7668 40C59.7668 38.6193 58.6475 37.5 57.2668 37.5H46.6356L53.4381 30.6975C54.4144 29.7212 54.4144 28.1383 53.4381 27.162C52.4618 26.1857 50.8789 26.1857 49.9026 27.162L43.1001 33.9645V23.3333Z" fill="#191921" style="fill:#191921;fill:color(display-p3 0.0980 0.0980 0.1294);fill-opacity:1;"></path><path fill-rule="evenodd" clip-rule="evenodd" d="M55.4785 7.91243C51.6714 7.49995 46.8727 7.49997 40.7509 7.5H40.4493C34.3275 7.49997 29.5288 7.49995 25.7217 7.91243C21.8366 8.33335 18.6886 9.20775 16.0009 11.1605C14.3737 12.3427 12.9428 13.7736 11.7606 15.4008C9.80784 18.0885 8.93345 21.2365 8.51253 25.1216C8.10005 28.9287 8.10007 33.7274 8.1001 39.8492V40.1508C8.10007 46.2726 8.10005 51.0713 8.51253 54.8784C8.93345 58.7635 9.80784 61.9115 11.7606 64.5992C12.9428 66.2264 14.3737 67.6573 16.0009 68.8395C18.6886 70.7923 21.8366 71.6666 25.7217 72.0876C29.5287 72.5 34.3273 72.5 40.4489 72.5H40.751C46.8726 72.5 51.6715 72.5 55.4785 72.0876C59.3636 71.6666 62.5116 70.7923 65.1993 68.8395C66.8265 67.6573 68.2574 66.2264 69.4396 64.5992C71.3924 61.9115 72.2667 58.7635 72.6877 54.8784C73.1001 51.0714 73.1001 46.2728 73.1001 40.1512V39.8491C73.1001 33.7275 73.1001 28.9286 72.6877 25.1216C72.2667 21.2365 71.3924 18.0885 69.4396 15.4008C68.2574 13.7736 66.8265 12.3427 65.1993 11.1605C62.5116 9.20775 59.3636 8.33335 55.4785 7.91243ZM18.9398 15.2056C20.6332 13.9753 22.8005 13.2582 26.2602 12.8833C29.7667 12.5034 34.2949 12.5 40.6001 12.5C46.9053 12.5 51.4335 12.5034 54.9399 12.8833C58.3997 13.2582 60.567 13.9753 62.2604 15.2056C63.4631 16.0794 64.5207 17.137 65.3945 18.3397C66.6248 20.0331 67.3419 22.2004 67.7168 25.6601C68.0967 29.1666 68.1001 33.6948 68.1001 40C68.1001 46.3052 68.0967 50.8334 67.7168 54.3399C67.3419 57.7996 66.6248 59.9669 65.3945 61.6603C64.5207 62.863 63.4631 63.9206 62.2604 64.7944C60.567 66.0247 58.3997 66.7418 54.9399 67.1167C51.4335 67.4966 46.9053 67.5 40.6001 67.5C34.2949 67.5 29.7667 67.4966 26.2602 67.1167C22.8005 66.7418 20.6332 66.0247 18.9398 64.7944C17.7371 63.9206 16.6795 62.863 15.8057 61.6603C14.5754 59.9669 13.8583 57.7996 13.4834 54.3399C13.1035 50.8334 13.1001 46.3052 13.1001 40C13.1001 33.6948 13.1035 29.1666 13.4834 25.6601C13.8583 22.2004 14.5754 20.0331 15.8057 18.3397C16.6795 17.137 17.7371 16.0794 18.9398 15.2056Z" fill="#191921" style="fill:#191921;fill:color(display-p3 0.0980 0.0980 0.1294);fill-opacity:1;"></path></svg> 