<?xml version="1.0" encoding="UTF-8"?> <svg xmlns="http://www.w3.org/2000/svg" fill="none" viewBox="0 0 20 20"><path fill="#324EEF" fill-rule="evenodd" d="M9.96 1.04h.08c1.53 0 2.73 0 3.68.1.97.1 1.76.33 2.43.82.4.3.76.65 1.06 1.06.49.67.7 1.46.81 2.43.1.95.1 2.15.1 3.68v1.74c0 1.53 0 2.73-.1 3.68-.1.97-.32 1.76-.81 2.43-.3.4-.65.77-1.06 1.06-.67.5-1.46.7-2.43.81-.95.1-2.15.1-3.68.1h-.08c-1.53 0-2.73 0-3.68-.1a4.85 4.85 0 0 1-2.43-.8 4.8 4.8 0 0 1-1.06-1.07 4.85 4.85 0 0 1-.81-2.43c-.1-.95-.1-2.15-.1-3.68V9.13c0-1.53 0-2.73.1-3.68.1-.97.32-1.76.81-2.43.3-.41.65-.77 1.06-1.06.67-.5 1.46-.71 2.43-.82.95-.1 2.15-.1 3.68-.1ZM6.42 2.4c-.87.1-1.41.27-1.84.58-.3.22-.56.48-.78.78-.3.42-.49.97-.58 1.83-.1.88-.1 2.01-.1 3.59v1.66c0 1.58 0 2.71.1 3.59.1.86.27 1.4.58 1.83.22.3.48.56.78.78.43.3.97.49 1.84.58.87.1 2 .1 3.58.1s2.7 0 3.59-.1c.86-.1 1.4-.27 1.83-.58.3-.22.56-.48.78-.78.3-.43.49-.97.58-1.83.1-.88.1-2.01.1-3.59V9.17c0-1.58 0-2.71-.1-3.59-.1-.86-.27-1.4-.58-1.83-.22-.3-.48-.56-.78-.78-.43-.31-.97-.49-1.83-.58-.88-.1-2.01-.1-3.59-.1s-2.7 0-3.58.1Zm-.38 4.28c0-.35.28-.63.63-.63h6.66a.62.62 0 1 1 0 1.25H6.67a.63.63 0 0 1-.63-.62Zm0 3.33c0-.35.28-.63.63-.63h2.5a.63.63 0 0 1 0 1.25h-2.5a.62.62 0 0 1-.63-.62Zm0 3.33c0-.34.28-.62.63-.62h6.66a.62.62 0 1 1 0 1.25H6.67a.62.62 0 0 1-.63-.63Z" clip-rule="evenodd"></path></svg> 