<?xml version="1.0" encoding="UTF-8"?> <svg xmlns="http://www.w3.org/2000/svg" width="81" height="80" viewBox="0 0 81 80" fill="none"><path d="M52.7467 34.9032C53.613 33.8281 53.4437 32.2543 52.3686 31.388C51.2934 30.5217 49.7196 30.6909 48.8533 31.7661L42.115 40.1287C40.7314 41.8458 39.8584 42.9196 39.1318 43.5982C38.7904 43.917 38.5723 44.0589 38.4469 44.1216C38.3536 44.1683 38.3203 44.1681 38.3024 44.168H38.2976C38.2797 44.1681 38.2463 44.1683 38.153 44.1216C38.0277 44.0589 37.8096 43.917 37.4682 43.5982C36.7416 42.9196 35.8686 41.8458 34.485 40.1287L32.7467 37.9713C31.8804 36.8962 30.3065 36.7269 29.2314 37.5932C28.1563 38.4595 27.987 40.0333 28.8533 41.1085L30.7002 43.4006C31.9419 44.9419 33.0374 46.3017 34.0555 47.2524C35.1485 48.2732 36.5075 49.168 38.3 49.168C40.0924 49.168 41.4514 48.2732 42.5445 47.2524C43.5626 46.3016 44.6581 44.9418 45.8998 43.4005L52.7467 34.9032Z" fill="#191921" style="fill:#191921;fill:color(display-p3 0.0980 0.0980 0.1294);fill-opacity:1;"></path><path fill-rule="evenodd" clip-rule="evenodd" d="M32.6763 4.16797C27.5369 4.16797 23.3707 8.33421 23.3707 13.4735C23.3707 15.8514 21.443 17.7791 19.0651 17.7791H18.0356C12.7821 17.7791 8.10235 21.8437 8.38738 27.4896C8.72579 34.193 10.2146 44.6407 15.6451 54.5373C17.1661 57.3091 19.1974 60.032 21.3933 62.569L21.5586 62.76C24.7175 66.41 27.3514 69.4533 30.1829 71.5277C33.2286 73.7589 36.4792 74.8704 40.8002 74.8704C45.1211 74.8704 48.3717 73.7589 51.4174 71.5277C54.2489 69.4533 56.8828 66.41 60.0417 62.76L60.207 62.569C62.4029 60.032 64.4342 57.3091 65.9552 54.5373C71.5662 44.3116 72.9654 32.7569 73.2413 25.5533C73.4566 19.9346 68.8102 15.8346 63.5274 15.8346H61.5629C59.722 15.8346 58.2296 14.3423 58.2296 12.5013C58.2296 7.89893 54.4986 4.16797 49.8963 4.16797H32.6763ZM28.3707 13.4735C28.3707 11.0956 30.2984 9.16797 32.6763 9.16797H49.8963C51.7372 9.16797 53.2296 10.6604 53.2296 12.5013C53.2296 17.1037 56.9606 20.8346 61.5629 20.8346H63.5274C66.3196 20.8346 68.3389 22.9116 68.245 25.3619C67.9813 32.2444 66.6393 42.8968 61.5717 52.132C60.2753 54.4947 58.4801 56.9241 56.4264 59.2968C53.0594 63.1869 50.7858 65.7923 48.4625 67.4943C46.304 69.0756 44.0962 69.8704 40.8002 69.8704C37.5041 69.8704 35.2963 69.0756 33.1378 67.4943C30.8145 65.7923 28.5409 63.1869 25.1739 59.2968C23.1203 56.9241 21.325 54.4947 20.0286 52.132C15.1003 43.1506 13.6992 33.5399 13.381 27.2375C13.26 24.8396 15.2351 22.7791 18.0356 22.7791H19.0651C24.2045 22.7791 28.3707 18.6128 28.3707 13.4735Z" fill="#191921" style="fill:#191921;fill:color(display-p3 0.0980 0.0980 0.1294);fill-opacity:1;"></path></svg> 