<?xml version="1.0" encoding="UTF-8"?> <svg xmlns="http://www.w3.org/2000/svg" fill="none" viewBox="0 0 84 84"><path stroke="gray" d="M17.44 1.3h-16v16M17.44 83.3h-16v-16M67.44 1.3h16v16M67.44 83.3h16v-16"></path><rect width="31" height="57.87" x="26.94" y="13.07" stroke="#fff" stroke-width="2" rx="6.2"></rect><path fill="#FAFAFA" d="M34.76 54.4c.15 0 .28.12.28.27v1.15l.76-.74c.1-.1.28-.1.39 0 .1.11.1.28 0 .39l-.76.73h1.19c.15 0 .28.12.28.27 0 .15-.13.27-.28.27h-1.35l.92.89c.1.1.1.27 0 .38-.1.1-.28.1-.4 0l-.75-.74v1c0 .14-.13.27-.28.27a.27.27 0 0 1-.28-.27v-1.15l-.91.89c-.11.1-.29.1-.4 0a.26.26 0 0 1 0-.38l.92-.9H32.9a.27.27 0 0 1-.28-.26c0-.15.12-.27.28-.27h1.02l-.76-.73a.26.26 0 0 1 0-.39c.11-.1.29-.1.4 0l.91.9v-1.3c0-.16.13-.28.28-.28ZM39.88 54.4c.16 0 .28.12.28.27v1.15l.76-.74c.1-.1.28-.1.4 0 .1.11.1.28 0 .39l-.77.73h1.19c.15 0 .28.12.28.27 0 .15-.13.27-.28.27H40.4l.91.89c.11.1.11.27 0 .38-.1.1-.28.1-.4 0l-.75-.74v1c0 .14-.12.27-.28.27a.27.27 0 0 1-.28-.27v-1.15l-.91.89c-.11.1-.29.1-.4 0a.26.26 0 0 1 0-.38l.92-.9h-1.18a.27.27 0 0 1-.28-.26c0-.15.12-.27.28-.27h1.02l-.76-.73a.26.26 0 0 1 0-.39c.11-.1.29-.1.4 0l.91.9v-1.3c0-.16.13-.28.28-.28ZM45.28 54.67a.27.27 0 0 0-.28-.27.27.27 0 0 0-.27.27v1.3l-.92-.89a.29.29 0 0 0-.4 0c-.1.11-.1.28 0 .39l.76.73h-1.02a.27.27 0 0 0-.28.27c0 .15.13.27.28.27h1.18l-.91.89c-.11.1-.11.27 0 .38.1.1.28.1.39 0l.92-.89v1.15a.27.27 0 0 0 .56 0v-1l.75.74c.1.1.29.1.4 0 .1-.1.1-.28 0-.38l-.92-.9h1.34c.15 0 .28-.11.28-.26a.27.27 0 0 0-.28-.27h-1.18l.75-.73c.11-.1.11-.28 0-.39a.29.29 0 0 0-.39 0l-.76.74v-1.15ZM50.13 54.4c.15 0 .27.12.27.27v1.15l.76-.74c.11-.1.29-.1.4 0 .1.11.1.28 0 .39l-.76.73h1.18c.16 0 .28.12.28.27 0 .15-.12.27-.28.27h-1.34l.92.89c.1.1.1.27 0 .38-.11.1-.29.1-.4 0l-.76-.74v1a.27.27 0 0 1-.56 0v-1.15l-.9.89c-.12.1-.3.1-.4 0a.26.26 0 0 1 0-.38l.91-.9h-1.18a.27.27 0 0 1-.28-.26c0-.15.13-.27.28-.27h1.02l-.75-.73a.26.26 0 0 1 0-.39c.1-.1.28-.1.4 0l.9.9v-1.3c0-.16.13-.28.29-.28ZM41.95 38.92a.75.75 0 1 1 1.5 0 .75.75 0 0 1-1.5 0Z"></path><path fill="#FAFAFA" fill-rule="evenodd" d="M42.7 30.63a3.47 3.47 0 0 0-3.47 3.47v.67l.02.12a3.01 3.01 0 0 0-1.83 1.9c-.14.45-.14 1-.14 2.13 0 1.12 0 1.68.14 2.14.3.92 1.02 1.63 1.94 1.93.45.15 1.01.15 2.13.15h2.42c1.12 0 1.68 0 2.13-.15a3.01 3.01 0 0 0 1.94-1.93c.15-.46.15-1.02.15-2.14s0-1.68-.15-2.14a3.01 3.01 0 0 0-1.83-1.9.45.45 0 0 0 .02-.11v-.67a3.47 3.47 0 0 0-3.47-3.47Zm1.2 4.07c.59 0 1.02 0 1.36.02v-.62a2.56 2.56 0 1 0-5.12 0v.62c.34-.02.77-.02 1.35-.02h2.42Zm-2.86 4.22a1.66 1.66 0 1 1 3.32 0 1.66 1.66 0 0 1-3.32 0Z" clip-rule="evenodd"></path><path stroke="#fff" stroke-linecap="round" stroke-width="2" d="M40.38 18.23h4.13M26.24 34.95v-2.11M26.24 30.02v-2.11M58.65 33.55V27.2"></path></svg> 