<?xml version="1.0" encoding="UTF-8"?> <svg xmlns="http://www.w3.org/2000/svg" fill="none" viewBox="0 0 81 80"><path fill="#324EEF" fill-rule="evenodd" d="M27.22 30.09h.3c4.12 0 7.41 0 10.04.28 2.7.3 5 .92 6.99 2.36 1.17.85 2.2 1.88 3.05 3.06 1.44 1.98 2.06 4.27 2.36 6.98.28 2.63.28 5.92.28 10.04v.3c0 4.12 0 7.41-.28 10.04-.3 2.7-.92 5-2.36 6.99a13.82 13.82 0 0 1-3.05 3.05c-1.99 1.44-4.28 2.06-7 2.36-2.62.28-5.91.28-10.03.28h-.3c-4.12 0-7.41 0-10.04-.28-2.7-.3-5-.92-6.98-2.36a13.82 13.82 0 0 1-3.06-3.05c-1.44-1.99-2.06-4.28-2.36-7-.28-2.62-.28-5.91-.28-10.03v-.3c0-4.12 0-7.41.28-10.04.3-2.7.92-5 2.36-6.98.85-1.18 1.88-2.2 3.06-3.06 1.98-1.44 4.28-2.06 6.98-2.36 2.63-.28 5.92-.28 10.04-.28Zm-9.5 5.26c-2.28.24-3.6.7-4.59 1.42-.74.55-1.4 1.2-1.95 1.95-.72 1-1.18 2.3-1.42 4.59-.26 2.33-.26 5.35-.26 9.65 0 4.3 0 7.32.26 9.65.24 2.28.7 3.6 1.42 4.59.55.74 1.2 1.4 1.95 1.95 1 .72 2.3 1.18 4.59 1.42 2.33.26 5.35.26 9.65.26 4.3 0 7.32 0 9.65-.26 2.28-.24 3.6-.7 4.59-1.42.74-.55 1.4-1.2 1.95-1.95.72-1 1.18-2.3 1.42-4.59.26-2.33.26-5.35.26-9.65 0-4.3 0-7.32-.26-9.65-.24-2.28-.7-3.6-1.42-4.59a8.82 8.82 0 0 0-1.95-1.95c-1-.72-2.3-1.18-4.59-1.42-2.33-.26-5.35-.26-9.65-.26-4.3 0-7.32 0-9.65.26Z" clip-rule="evenodd"></path><path fill="#324EEF" fill-rule="evenodd" d="M53.15 4.17h.3c4.11 0 7.4 0 10.04.28 2.7.3 5 .91 6.98 2.36 1.17.85 2.2 1.88 3.06 3.05 1.44 1.99 2.06 4.28 2.35 6.99.29 2.63.29 5.92.29 10.04v.3c0 4.11 0 7.4-.29 10.04-.3 2.7-.91 5-2.35 6.98a13.82 13.82 0 0 1-3.06 3.06c-1.98 1.44-4.28 2.06-6.98 2.35-2.63.29-5.93.29-10.05.29h-.29c-4.12 0-7.41 0-10.04-.29-2.7-.29-5-.9-6.99-2.35a13.82 13.82 0 0 1-3.06-3.06c-1.44-1.98-2.06-4.28-2.35-6.98-.28-2.63-.28-5.93-.28-10.05v-.29c0-4.12 0-7.41.28-10.04.3-2.7.91-5 2.35-6.99.86-1.17 1.89-2.2 3.06-3.05 1.99-1.45 4.28-2.06 6.99-2.36 2.63-.28 5.92-.28 10.04-.28Zm-9.5 5.25c-2.29.25-3.6.71-4.59 1.43-.75.55-1.4 1.2-1.95 1.95-.72 1-1.18 2.3-1.43 4.59-.25 2.33-.25 5.35-.25 9.65 0 4.3 0 7.32.25 9.65.25 2.28.71 3.6 1.43 4.58.54.75 1.2 1.41 1.95 1.95.99.72 2.3 1.19 4.59 1.43 2.32.26 5.35.26 9.65.26 4.3 0 7.32 0 9.65-.26 2.28-.24 3.6-.7 4.58-1.43.75-.54 1.4-1.2 1.95-1.95.72-.99 1.18-2.3 1.43-4.58.25-2.33.26-5.35.26-9.65 0-4.3 0-7.32-.26-9.65-.25-2.28-.7-3.6-1.43-4.59a8.82 8.82 0 0 0-1.95-1.95c-.99-.72-2.3-1.18-4.58-1.43-2.33-.25-5.35-.25-9.65-.25-4.3 0-7.33 0-9.65.25Z" clip-rule="evenodd"></path><path fill="#97C0FF" fill-rule="evenodd" d="M35.43 30.2c.76.05 1.46.1 2.13.17 2.7.3 5 .92 6.99 2.36 1.17.85 2.2 1.88 3.05 3.05 1.44 1.99 2.06 4.28 2.36 7 .07.66.12 1.37.16 2.12l.12 5-5-.11c-.76-.04-1.47-.1-2.13-.17-2.7-.3-5-.91-6.99-2.35a13.82 13.82 0 0 1-3.05-3.06c-1.45-1.98-2.07-4.28-2.36-6.98-.07-.67-.13-1.38-.17-2.14l-.1-5 5 .12Zm.13 5.02 1.46.13c2.28.24 3.6.7 4.59 1.42.75.55 1.4 1.2 1.95 1.95.72 1 1.18 2.3 1.43 4.59.05.46.09.94.12 1.46-.52-.03-1-.07-1.46-.12-2.28-.25-3.6-.7-4.59-1.43a8.82 8.82 0 0 1-1.95-1.95c-.72-.99-1.18-2.3-1.43-4.58-.05-.46-.09-.95-.12-1.47Z" clip-rule="evenodd"></path></svg> 