<?xml version="1.0" encoding="UTF-8"?> <svg xmlns="http://www.w3.org/2000/svg" fill="none" viewBox="0 0 81 80"><path fill="#324EEF" fill-rule="evenodd" d="M32.54 4.17a9.3 9.3 0 0 0-9.3 9.3 4.3 4.3 0 0 1-4.3 4.3H17.9c-5.25 0-9.93 4.07-9.65 9.72.34 6.7 1.83 17.15 7.26 27.05a47.55 47.55 0 0 0 5.75 8.03l.16.19c3.16 3.65 5.8 6.7 8.63 8.77a16.9 16.9 0 0 0 10.62 3.34 16.9 16.9 0 0 0 10.61-3.34c2.84-2.08 5.47-5.12 8.63-8.77l.16-.2a47.55 47.55 0 0 0 5.75-8.02c5.61-10.23 7.01-21.78 7.29-28.99.21-5.62-4.43-9.72-9.72-9.72h-1.96a3.33 3.33 0 0 1-3.33-3.33c0-4.6-3.74-8.33-8.34-8.33H32.54Zm-4.3 9.3a4.3 4.3 0 0 1 4.3-4.3h17.22c1.84 0 3.34 1.49 3.34 3.33 0 4.6 3.73 8.33 8.33 8.33h1.96c2.8 0 4.82 2.08 4.72 4.53-.26 6.88-1.6 17.54-6.67 26.77-1.3 2.36-3.1 4.8-5.15 7.17-3.36 3.89-5.64 6.5-7.96 8.2-2.16 1.58-4.37 2.37-7.66 2.37-3.3 0-5.5-.8-7.67-2.38-2.32-1.7-4.6-4.3-7.96-8.2a42.63 42.63 0 0 1-5.15-7.16c-4.92-8.98-6.32-18.59-6.64-24.9-.12-2.39 1.85-4.45 4.65-4.45h1.03a9.3 9.3 0 0 0 9.3-9.3Z" clip-rule="evenodd"></path><path fill="#97C1FF" d="M52.23 31.39a2.5 2.5 0 0 1 .38 3.51l-6.84 8.5a39.41 39.41 0 0 1-3.36 3.85c-1.1 1.02-2.45 1.92-4.24 1.92-1.8 0-3.16-.9-4.25-1.92a39.4 39.4 0 0 1-3.35-3.85l-1.85-2.3a2.5 2.5 0 0 1 3.9-3.13l1.73 2.16a37.5 37.5 0 0 0 2.98 3.47c.35.32.56.46.69.52.1.05.13.05.14.05.03 0 .06 0 .15-.05.13-.06.35-.2.69-.52a37.5 37.5 0 0 0 2.98-3.47l6.74-8.36a2.5 2.5 0 0 1 3.51-.38Z"></path></svg> 