<?xml version="1.0" encoding="UTF-8"?> <svg xmlns="http://www.w3.org/2000/svg" fill="none" viewBox="0 0 84 84"><path stroke="gray" d="M17.44 1.3h-16v16M17.44 83.3h-16v-16M67.44 1.3h16v16M67.44 83.3h16v-16"></path><path fill="#fff" d="M29.77 49.35c.43.54.75 1.18.96 1.82.22.64.32 1.38.32 2.13s-.1 1.5-.32 2.13a5.93 5.93 0 0 1-.96 1.82c-.53.74-.42 1.81.32 2.34.75.54 1.82.43 2.35-.32a11.5 11.5 0 0 0 1.5-2.77c.42-1.07.53-2.13.53-3.2a10.01 10.01 0 0 0-2.03-5.97c-.53-.75-1.6-.86-2.35-.32-.74.53-.85 1.6-.32 2.34ZM35.64 46.26a13.24 13.24 0 0 1 0 14.08c-.53.75-.21 1.81.53 2.35.86.53 1.82.21 2.35-.54a16.55 16.55 0 0 0 0-17.7c-.53-.75-1.6-1.07-2.35-.54-.74.54-1.06 1.5-.53 2.35Z"></path><path fill="#fff" d="M41.83 43.06A19.64 19.64 0 0 1 44.6 53.3a20.7 20.7 0 0 1-2.77 10.24c-.43.85-.22 1.81.64 2.35.85.42 1.8.21 2.34-.64a22.85 22.85 0 0 0 3.3-11.95c0-4.37-1.16-8.43-3.3-11.95-.42-.85-1.5-1.06-2.34-.64a1.74 1.74 0 0 0-.64 2.35Z"></path><path fill="#fff" d="M48.01 39.86a27.22 27.22 0 0 1 3.63 13.44c0 4.9-1.28 9.5-3.63 13.44-.42.85-.21 1.81.64 2.35.86.42 1.82.21 2.35-.64a30.32 30.32 0 0 0 0-30.3c-.43-.85-1.5-1.06-2.35-.64-.85.43-1.06 1.5-.64 2.35ZM31.54 22.3v-8.64h1.48l4.58 7.4-.29.05v-7.45h1.23v8.64h-1.48l-4.58-7.4.28-.05v7.45h-1.22Zm8.78 0v-8.64h1.27v8.64h-1.27Zm.62-3.59v-1.04h4.75v1.04h-4.75Zm0-4v-1.05h5.08v1.04h-5.08ZM51 22.41a4.1 4.1 0 0 1-3-1.25c-.37-.4-.66-.87-.87-1.41a4.97 4.97 0 0 1-.3-1.8c0-.64.1-1.23.3-1.77a3.87 3.87 0 0 1 2.2-2.33 4.25 4.25 0 0 1 3.47.09c.53.26.97.64 1.3 1.13.35.48.56 1.05.64 1.7h-1.25c-.1-.68-.38-1.2-.82-1.58-.44-.39-1-.58-1.67-.58a2.72 2.72 0 0 0-2.52 1.58c-.24.5-.36 1.09-.36 1.77 0 .67.12 1.26.36 1.77a2.7 2.7 0 0 0 2.52 1.6c.67 0 1.23-.19 1.68-.56.45-.39.73-.92.83-1.6h1.26a3.6 3.6 0 0 1-1.97 2.84c-.53.27-1.13.4-1.8.4Z"></path></svg> 