<?xml version="1.0" encoding="UTF-8"?> <svg xmlns="http://www.w3.org/2000/svg" fill="none" viewBox="0 0 20 20"><path fill="#324EEF" fill-rule="evenodd" d="M15.22 3.32c1.46-.4 2.9.69 2.9 2.2v8.95a2.3 2.3 0 0 1-2.9 2.21l-5.24-1.45a2.3 2.3 0 0 1-2.28 2.06h-.2A2.3 2.3 0 0 1 5.2 15V13.9l-1.65-.46a2.3 2.3 0 0 1-1.67-2.2V8.76a2.3 2.3 0 0 1 1.67-2.21l11.67-3.24ZM6.46 14.25V15c0 .57.46 1.04 1.04 1.04h.2c.57 0 1.04-.47 1.04-1.04v-.12l-2.28-.63Zm3.53-.32 5.56 1.55c.67.18 1.32-.32 1.32-1V5.52c0-.7-.65-1.2-1.32-1L10 6.06v7.86ZM8.74 6.41v7.17L3.9 12.24a1.04 1.04 0 0 1-.77-1V8.76c0-.47.32-.88.77-1L8.74 6.4Z" clip-rule="evenodd"></path></svg> 