<?xml version="1.0" encoding="UTF-8"?> <svg xmlns="http://www.w3.org/2000/svg" fill="none" viewBox="0 0 84 84"><path stroke="gray" d="M17.44 1.3h-16v16M17.44 83.3h-16v-16M67.44 1.3h16v16M67.44 83.3h16v-16"></path><path fill="#fff" d="M33.04 71.3v-7.6h-2.92v-1.04h7.1v1.04h-2.9v7.6h-1.28Zm5.34 0v-8.64h3.66c.63 0 1.16.1 1.6.31.44.21.78.5 1 .9.25.37.37.83.37 1.36 0 .53-.12 1-.36 1.4-.23.37-.57.67-1.02.9-.44.2-.97.31-1.59.31h-2.68V66.8h2.62c.57 0 1-.14 1.3-.4.3-.28.46-.66.46-1.15 0-.5-.15-.88-.45-1.14-.3-.26-.73-.4-1.3-.4h-2.33v7.6h-1.28Zm7.82 0v-8.64h1.96L51.04 71h-.64l2.85-8.33h2v8.64h-1.27v-8.12h.2l-2.79 8.12h-1.41l-2.79-8.05h.2v8.05h-1.2Z"></path><g clip-path="url(#clip0_551_5173)"><rect width="38.6" height="20.32" x="23.46" y="22.16" stroke="#fff" stroke-width="1.52" rx="2.03"></rect><path fill="#fff" d="M44.69 34.96v-5.69h1.2l1.83 4.48 1.79-4.48h1.18v5.69h-.9v-4.19l-1.7 4.19h-.8l-1.7-4.19v4.19h-.9ZM39.76 34.96v-5.69H42c1.19 0 1.97.7 1.97 1.81 0 1.1-.78 1.81-1.97 1.81h-1.3v2.07h-.94Zm2.17-4.88h-1.24v2h1.23c.67 0 1.1-.39 1.1-1 0-.62-.42-1-1.09-1ZM34.63 30.1v-.83h4.45v.83h-1.76v4.86h-.93V30.1h-1.76Z"></path><path stroke="#fff" stroke-width="1.52" d="M26 13.02v6.1"></path><path fill="#fff" d="M27.52 13.52a1.52 1.52 0 1 1-3.05 0 1.52 1.52 0 0 1 3.05 0Z"></path><path stroke="#fff" stroke-width="1.52" d="M30.78 13.02v6.1"></path><path fill="#fff" d="M32.31 13.52a1.52 1.52 0 1 1-3.05 0 1.52 1.52 0 0 1 3.05 0Z"></path><path stroke="#fff" stroke-width="1.52" d="M35.57 13.02v6.1"></path><path fill="#fff" d="M37.1 13.52a1.52 1.52 0 1 1-3.05 0 1.52 1.52 0 0 1 3.05 0Z"></path><path stroke="#fff" stroke-width="1.52" d="M40.36 13.02v6.1"></path><path fill="#fff" d="M41.89 13.52a1.52 1.52 0 1 1-3.05 0 1.52 1.52 0 0 1 3.05 0Z"></path><path stroke="#fff" stroke-width="1.52" d="M45.15 13.02v6.1"></path><path fill="#fff" d="M46.68 13.52a1.52 1.52 0 1 1-3.05 0 1.52 1.52 0 0 1 3.05 0Z"></path><path stroke="#fff" stroke-width="1.52" d="M49.94 13.02v6.1"></path><path fill="#fff" d="M51.47 13.52a1.52 1.52 0 1 1-3.05 0 1.52 1.52 0 0 1 3.05 0Z"></path><path stroke="#fff" stroke-width="1.52" d="M54.73 13.02v6.1"></path><path fill="#fff" d="M56.26 13.52a1.52 1.52 0 1 1-3.05 0 1.52 1.52 0 0 1 3.05 0Z"></path><path stroke="#fff" stroke-width="1.52" d="M59.52 13.02v6.1"></path><path fill="#fff" d="M61.05 13.52a1.52 1.52 0 1 1-3.05 0 1.52 1.52 0 0 1 3.05 0ZM28.54 26.22a1.02 1.02 0 1 1-2.03 0 1.02 1.02 0 0 1 2.03 0ZM59.01 26.22a1.02 1.02 0 1 1-2.03 0 1.02 1.02 0 0 1 2.03 0ZM28.54 38.41a1.02 1.02 0 1 1-2.03 0 1.02 1.02 0 0 1 2.03 0ZM59.01 38.41a1.02 1.02 0 1 1-2.03 0 1.02 1.02 0 0 1 2.03 0Z"></path><path stroke="#fff" stroke-width="1.52" d="M26 50.62v-6.1"></path><path fill="#fff" d="M27.52 50.1a1.52 1.52 0 1 0-3.05 0 1.52 1.52 0 0 0 3.05 0Z"></path><path stroke="#fff" stroke-width="1.52" d="M30.78 50.62v-6.1"></path><path fill="#fff" d="M32.31 50.1a1.52 1.52 0 1 0-3.05 0 1.52 1.52 0 0 0 3.05 0Z"></path><path stroke="#fff" stroke-width="1.52" d="M35.57 50.62v-6.1"></path><path fill="#fff" d="M37.1 50.1a1.52 1.52 0 1 0-3.05 0 1.52 1.52 0 0 0 3.05 0Z"></path><path stroke="#fff" stroke-width="1.52" d="M40.36 50.62v-6.1"></path><path fill="#fff" d="M41.89 50.1a1.52 1.52 0 1 0-3.05 0 1.52 1.52 0 0 0 3.05 0Z"></path><path stroke="#fff" stroke-width="1.52" d="M45.15 50.62v-6.1"></path><path fill="#fff" d="M46.68 50.1a1.52 1.52 0 1 0-3.05 0 1.52 1.52 0 0 0 3.05 0Z"></path><path stroke="#fff" stroke-width="1.52" d="M49.94 50.62v-6.1"></path><path fill="#fff" d="M51.47 50.1a1.52 1.52 0 1 0-3.05 0 1.52 1.52 0 0 0 3.05 0Z"></path><path stroke="#fff" stroke-width="1.52" d="M54.73 50.62v-6.1"></path><path fill="#fff" d="M56.26 50.1a1.52 1.52 0 1 0-3.05 0 1.52 1.52 0 0 0 3.05 0Z"></path><path stroke="#fff" stroke-width="1.52" d="M59.52 50.62v-6.1"></path><path fill="#fff" d="M61.05 50.1a1.52 1.52 0 1 0-3.05 0 1.52 1.52 0 0 0 3.05 0Z"></path></g><defs><clipPath id="clip0_551_5173"><path fill="#fff" d="M22.44 12h40v40h-40z"></path></clipPath></defs></svg> 