<?xml version="1.0" encoding="utf-8"?><svg xmlns="http://www.w3.org/2000/svg" xmlns:xlink="http://www.w3.org/1999/xlink"><symbol viewBox="0 0 26.9 32" id="apple" xmlns="http://www.w3.org/2000/svg"><path fill="currentColor" d="M26.31 24.91A17.13 17.13 0 0 1 24.6 28a15.71 15.71 0 0 1-2.22 2.68A4.4 4.4 0 0 1 19.54 32a7.3 7.3 0 0 1-2.62-.63 7.62 7.62 0 0 0-2.83-.64 7.74 7.74 0 0 0-2.9.64 8.76 8.76 0 0 1-2.5.67 4.1 4.1 0 0 1-2.91-1.29A16.93 16.93 0 0 1 3.47 28 19.3 19.3 0 0 1 1 23.08a17.73 17.73 0 0 1-1-5.81 10.55 10.55 0 0 1 1.38-5.54 8 8 0 0 1 6.85-4.05 9.27 9.27 0 0 1 3 .71 9.8 9.8 0 0 0 2.41.71 14.94 14.94 0 0 0 2.68-.83A9.07 9.07 0 0 1 20 7.62a7.76 7.76 0 0 1 6.06 3.2 6.73 6.73 0 0 0-3.58 6.12A6.83 6.83 0 0 0 24.69 22a7.79 7.79 0 0 0 2.21 1.46c-.21.47-.39 1-.59 1.42zM20.13.63a6.85 6.85 0 0 1-1.75 4.48 6 6 0 0 1-5 2.45 5.86 5.86 0 0 1 0-.61 7 7 0 0 1 1.86-4.52 7.26 7.26 0 0 1 2.25-1.7A6.62 6.62 0 0 1 20.07 0a2.32 2.32 0 0 1 .06.63z"/></symbol><symbol viewBox="0 0 25 33.33" id="arrow-down" xmlns="http://www.w3.org/2000/svg"><path fill="none" stroke="currentColor" stroke-miterlimit="10" stroke-width="4" d="M12.5 30.2V0m11 17-11 13.2L1.55 17"/></symbol><symbol viewBox="0 0 39 31" id="arrow-left" xmlns="http://www.w3.org/2000/svg"><path d="M37.8 16.65H4.12a1 1 0 0 1 0-2H37.8a1 1 0 0 1 0 2Z"/><path d="M15.49 30.4a1 1 0 0 1-.71-.29L.89 16.22a1 1 0 0 1 0-1.41L14.78.91a1 1 0 0 1 1.42 1.42L3 15.51 16.2 28.7a1 1 0 0 1-.71 1.71Z"/></symbol><symbol viewBox="0 0 39 31" id="arrow-right" xmlns="http://www.w3.org/2000/svg"><path d="M1.6 14.37h33.68a1 1 0 1 1 0 2H1.6a1 1 0 1 1 0-2Z"/><path d="M23.91.62a1 1 0 0 1 .71.29L38.51 14.8a1 1 0 0 1 0 1.41l-13.89 13.9a1 1 0 1 1-1.42-1.41l13.19-13.19L23.2 2.33a1 1 0 0 1 .71-1.71Z"/></symbol><symbol viewBox="0 0 25 33.33" id="arrow-up" xmlns="http://www.w3.org/2000/svg"><path fill="none" stroke="currentColor" stroke-miterlimit="10" stroke-width="4" d="M12.5 33.33V3.17M1.55 16.33l11-13.16 11 13.16"/></symbol><symbol viewBox="0 0 28 29" id="arrow-up-right" xmlns="http://www.w3.org/2000/svg"><path d="M6.63 22.87a1 1 0 0 1-.71-1.71L20.66 6.42a1 1 0 0 1 1.41 1.41L7.34 22.57a1 1 0 0 1-.71.3Z"/><path d="M21.37 22.87a1 1 0 0 1-1-1V8.13H6.63a1 1 0 0 1 0-2h14.74a1 1 0 0 1 1 1v14.74a1 1 0 0 1-1 1Z"/></symbol><symbol viewBox="0 0 32 24" id="check-o" xmlns="http://www.w3.org/2000/svg"><path fill="none" stroke="currentColor" stroke-miterlimit="10" d="m1.45 11.85 9.28 9.25L30.55 1.5"/></symbol><symbol viewBox="0 0 32 19.28" id="chevron-down-o" xmlns="http://www.w3.org/2000/svg"><path fill="none" stroke="currentColor" stroke-miterlimit="10" stroke-width="4" d="m1.5 1.4 14.63 15 14.37-15"/></symbol><symbol viewBox="0 0 19.28 32" id="chevron-left-o" xmlns="http://www.w3.org/2000/svg"><path fill="none" stroke="currentColor" stroke-miterlimit="10" stroke-width="4" d="m17.88 1.5-15 14.37 15 14.63"/></symbol><symbol viewBox="0 0 19.28 32" id="chevron-right-o" xmlns="http://www.w3.org/2000/svg"><path fill="none" stroke="currentColor" stroke-miterlimit="10" stroke-width="4" d="m1.4 30.5 15-14.63L1.4 1.5"/></symbol><symbol viewBox="0 0 32 19.28" id="chevron-up-o" xmlns="http://www.w3.org/2000/svg"><path fill="none" stroke="currentColor" stroke-miterlimit="10" stroke-width="4" d="m30.5 17.88-14.37-15-14.63 15"/></symbol><symbol viewBox="0 0 26 18" id="discord" xmlns="http://www.w3.org/2000/svg"><path fill="currentColor" d="M22.29 2.84A10.58 10.58 0 0 0 16.45.76l-.31.3a13.88 13.88 0 0 1 5.25 2.53 19.67 19.67 0 0 0-8.37-2 19.67 19.67 0 0 0-8.37 2 13.88 13.88 0 0 1 5.23-2.53l-.32-.3a10.58 10.58 0 0 0-5.84 2.08A25.1 25.1 0 0 0 .63 14.4a9 9 0 0 0 6.6 2.84s.77-.87 1.35-1.64a6.8 6.8 0 0 1-3.76-2.32A14.22 14.22 0 0 0 13 15.62a14.22 14.22 0 0 0 8.18-2.34 6.8 6.8 0 0 1-3.76 2.32c.57.77 1.35 1.65 1.35 1.65a9 9 0 0 0 6.6-2.84 25.09 25.09 0 0 0-3.08-11.57ZM9.2 12.41A2.2 2.2 0 0 1 9.2 8a2.2 2.2 0 0 1 0 4.4Zm7.62 0a2.2 2.2 0 0 1 0-4.4 2.2 2.2 0 0 1 0 4.41Z"/></symbol><symbol viewBox="0 0 28 29" id="download" xmlns="http://www.w3.org/2000/svg"><path stroke="currentColor" fill="none" stroke-linecap="round" stroke-linejoin="round" stroke-width="2" d="M24 27.42H3.16M13.42 2.08v20.84M3 12.5l10.42 10.42L23.84 12.5"/></symbol><symbol viewBox="0 0 32 32" id="dribbble" xmlns="http://www.w3.org/2000/svg"><path fill="currentColor" d="M16 0a16 16 0 1 0 16 16A16 16 0 0 0 16 0zm10.43 7.55a13.38 13.38 0 0 1 3 8 22.6 22.6 0 0 0-9-.09c-.48-1.12-1-2.2-1.48-3.21a26.68 26.68 0 0 0 7.48-4.7zm-1.81-1.84A23.78 23.78 0 0 1 17.75 10a62.59 62.59 0 0 0-4.55-7.14 13.57 13.57 0 0 1 2.8-.29 13.35 13.35 0 0 1 8.62 3.14zm-14-2a60.23 60.23 0 0 1 4.68 7.22 42.76 42.76 0 0 1-12.36 1.94 13.5 13.5 0 0 1 7.67-9.17zm-8 11.75h.08a46.59 46.59 0 0 0 8.14-.75 39.89 39.89 0 0 0 5.7-1.47c.47.92.93 1.9 1.38 2.93a24 24 0 0 0-6.28 3.11 28.44 28.44 0 0 0-5.84 5.4A13.35 13.35 0 0 1 2.57 16l.01-.55zm5 11a25.86 25.86 0 0 1 5.52-5.13 21.88 21.88 0 0 1 5.72-2.82 49.37 49.37 0 0 1 2.7 9.7A13.21 13.21 0 0 1 16 29.43a13.35 13.35 0 0 1-8.39-2.96zm16.31.37a53.48 53.48 0 0 0-2.53-8.92 20.31 20.31 0 0 1 7.86.26 13.46 13.46 0 0 1-5.34 8.67z"/></symbol><symbol viewBox="0 0 34 34" id="facebook" xmlns="http://www.w3.org/2000/svg"><path d="M21.28 8.19h3.05a.61.61 0 0 0 .61-.62V3.43a.61.61 0 0 0-.56-.61c-1-.07-2.87-.16-4.23-.16C16.39 2.65 14 4.91 14 9v4.08H9.68a.61.61 0 0 0-.61.62V18a.61.61 0 0 0 .61.62H14v11.7a.61.61 0 0 0 .61.62h4.27a.61.61 0 0 0 .61-.62V18.66h4.41a.61.61 0 0 0 .61-.55l.47-4.31a.61.61 0 0 0-.61-.68h-4.93V10a1.84 1.84 0 0 1 1.84-1.81Z"/></symbol><symbol viewBox="0 0 32 32" id="github" xmlns="http://www.w3.org/2000/svg"><path fill="currentColor" d="M16.05 0A16.22 16.22 0 0 0 0 16.43 16.38 16.38 0 0 0 11 32c.86.11 1.07-.33 1.07-.76v-2.87c-4.49 1-5.45-2.19-5.45-2.19a4.63 4.63 0 0 0-1.82-2.41c-1.5-1 .1-1 .1-1a3.37 3.37 0 0 1 2.46 1.65c1.4 2.51 3.75 1.75 4.71 1.31a3.05 3.05 0 0 1 1.07-2.19c-3.53-.44-7.27-1.86-7.27-8.11a6.64 6.64 0 0 1 1.6-4.38 5.84 5.84 0 0 1 .13-4.37S9 6.24 12 8.32a16.92 16.92 0 0 1 4.06-.54 17 17 0 0 1 4.07.54c3.1-2.08 4.39-1.64 4.39-1.64a5.82 5.82 0 0 1 .1 4.38 6.13 6.13 0 0 1 1.61 4.38c0 6.36-3.75 7.67-7.28 8.11A4.25 4.25 0 0 1 20 26.62v4.49a.77.77 0 0 0 1.07.76A16.29 16.29 0 0 0 32 16.32 16 16 0 0 0 16.05 0z"/></symbol><symbol viewBox="0 0 29 32" id="google-play" xmlns="http://www.w3.org/2000/svg"><path fill="currentColor" d="m.75 31.55 13.88-14 4.9 4.94L3 31.74a2 2 0 0 1-2 0zm12.48-15.41L0 29.49V2.79zm8.27-5.52 6.5 3.63a2 2 0 0 1 0 3.5l-6.64 3.73L16 16.14zM.61.58A1.78 1.78 0 0 1 1 .27a2 2 0 0 1 2 0l16.7 9.34-5.07 5.12z"/></symbol><symbol viewBox="0 0 32 32" id="instagram" xmlns="http://www.w3.org/2000/svg"><path fill="currentColor" d="M3 10v12a7.07 7.07 0 0 0 7 7h12a7.07 7.07 0 0 0 7-7V10a7.07 7.07 0 0 0-7-7H10a7.07 7.07 0 0 0-7 7zm-3 0A9.81 9.81 0 0 1 10 0h12a9.81 9.81 0 0 1 10 10v12a9.81 9.81 0 0 1-10 10H10A9.81 9.81 0 0 1 0 22zm16 10.71A4.71 4.71 0 1 0 11.29 16 4.66 4.66 0 0 0 16 20.71zm0 2.82A7.53 7.53 0 1 1 23.53 16 7.55 7.55 0 0 1 16 23.53zm9.41-15.06a1.88 1.88 0 0 1-3.76 0 1.88 1.88 0 1 1 3.76 0z"/></symbol><symbol viewBox="0 0 30 30" id="linkedin" xmlns="http://www.w3.org/2000/svg"><path d="M7.09 27.19H1V9.93h6.09ZM4 7.63a3 3 0 0 1-3-2.88 3 3 0 0 1 3-2.87 3 3 0 0 1 3 2.88 3 3 0 0 1-3 2.87Zm25 19.56h-5.85v-8.4c0-2 0-4.58-3-4.58s-3.52 2.18-3.52 4.43v8.54h-5.89V9.92h5.62v2.36h.08A6.27 6.27 0 0 1 22 9.49c5.93 0 7 3.58 7 8.23Z"/></symbol><symbol viewBox="0 0 12 32" id="long-arrow-down-o" xmlns="http://www.w3.org/2000/svg"><path fill="none" stroke="currentColor" stroke-miterlimit="10" d="M11.67 26.28 6 31.33l-5.67-5M6 0v31.32"/></symbol><symbol viewBox="0 0 32 12" id="long-arrow-left-o" xmlns="http://www.w3.org/2000/svg"><path fill="none" stroke="currentColor" stroke-miterlimit="10" d="M5.67 11.67.67 6 5.72.33M.68 6H32"/></symbol><symbol viewBox="0 0 32 12" id="long-arrow-right-o" xmlns="http://www.w3.org/2000/svg"><path fill="none" stroke="currentColor" stroke-miterlimit="10" d="m26.28.33 5 5.67-5 5.67M0 6h31.32"/></symbol><symbol viewBox="0 0 12 32" id="long-arrow-up-o" xmlns="http://www.w3.org/2000/svg"><path fill="none" stroke="currentColor" stroke-miterlimit="10" d="M.33 5.67 6 .67l5.67 5.05M6 .68V32"/></symbol><symbol viewBox="0 0 32 32" id="medium" xmlns="http://www.w3.org/2000/svg"><path fill="currentColor" d="M0 0v32h32V0zm26.73 7.53L25 9.22a.7.7 0 0 0-.19.57v12.05a.69.69 0 0 0 .19.56l1.69 1.69v.38h-8.62v-.38l1.69-1.69c.19-.19.19-.19.19-.56v-10l-4.89 12.25h-.57L8.85 11.86v8.28c0 .38 0 .75.37.94l2.26 2.83v.37h-6.4v-.37l2.26-2.83a1.42 1.42 0 0 0 .38-.94v-9.41a1.1 1.1 0 0 0-.19-.73L5.27 7.53v-.38h6.21l4.9 10.54 4.33-10.54h6z"/></symbol><symbol viewBox="0 0 22 24" id="play" xmlns="http://www.w3.org/2000/svg"><path d="M13.5 4.21c5.25 3 7.88 4.55 8.36 6.71a5 5 0 0 1 0 2.17c-.48 2.16-3.1 3.67-8.36 6.71s-7.88 4.55-10 3.88a5 5 0 0 1-1.88-1.09C0 21.1 0 18.07 0 12S0 2.9 1.63 1.41A5 5 0 0 1 3.51.32c2.11-.66 4.74.85 9.99 3.89Z"/></symbol><symbol viewBox="0 0 12 12" id="required" xmlns="http://www.w3.org/2000/svg"><path fill="currentColor" d="M6.75 0h-1.5v4.19l-3-3-1.02 1.1 3 3H0v1.5h4.19l-3 3 1.06 1.06 3-3V12h1.5V7.81l3 3 1.06-1.06-3-3H12v-1.5H7.81l3-3-1.1-1.02-3 3Z"/></symbol><symbol viewBox="0 0 24 24" id="search" xmlns="http://www.w3.org/2000/svg"><path d="M4.47 17.47a.75.75 0 0 1 1.06 1.06Zm-2.94 5.06a.75.75 0 0 1-1.06-1.06Zm4-4-4 4-1.06-1.06 4-4Zm7.47-.28A8.25 8.25 0 0 0 21.25 10h1.5A9.75 9.75 0 0 1 13 19.75ZM4.75 10A8.25 8.25 0 0 0 13 18.25v1.5A9.75 9.75 0 0 1 3.25 10ZM13 1.75A8.25 8.25 0 0 0 4.75 10h-1.5A9.75 9.75 0 0 1 13 .25Zm0-1.5A9.75 9.75 0 0 1 22.75 10h-1.5A8.25 8.25 0 0 0 13 1.75Z"/></symbol><symbol viewBox="0 0 32 28" id="telegram" xmlns="http://www.w3.org/2000/svg"><path fill="currentColor" d="M.52 13.31 7.9 16.1l2.92 9.2a.87.87 0 0 0 1.4.41l4.17-3.34a1.09 1.09 0 0 1 1.53 0l7.38 5.43a.85.85 0 0 0 1.39-.55L32 1.05a.83.83 0 0 0-1.11-1L.52 11.64a.93.93 0 0 0 0 1.67zm9.75 1.26 14.47-8.92c.28-.14.56.28.28.42l-11.83 11a3.34 3.34 0 0 0-.84 1.54l-.41 3.06c0 .42-.56.42-.7 0l-1.53-5.43a1.33 1.33 0 0 1 .56-1.67z"/></symbol><symbol viewBox="0 0 17 20" id="tiktok" xmlns="http://www.w3.org/2000/svg"><path fill="currentColor" d="M14.88 4.28 14.5 4a5.46 5.46 0 0 1-1-.86 4.81 4.81 0 0 1-1.11-2.3 3 3 0 0 1 0-.84H9v13.87a3 3 0 0 1-.44 1.34 2.89 2.89 0 0 1-1 1 2.77 2.77 0 0 1-1.39.38 2.92 2.92 0 0 1 0-5.83 2.77 2.77 0 0 1 .87.14V7.41a6.14 6.14 0 0 0-2.56.2 6.22 6.22 0 0 0-2.29 1.24 6.72 6.72 0 0 0-1.44 1.82A6.38 6.38 0 0 0 0 13.55a6.93 6.93 0 0 0 .36 2.28 6.76 6.76 0 0 0 .91 1.7 6.9 6.9 0 0 0 1.46 1.4A6.21 6.21 0 0 0 6.19 20a6 6 0 0 0 2.55-.58 6.43 6.43 0 0 0 2.07-1.59 6.63 6.63 0 0 0 1.13-1.91 7.29 7.29 0 0 0 .41-2.19v-7l.59.39a7.71 7.71 0 0 0 2 .85 11.35 11.35 0 0 0 2.06.24V4.8a4.3 4.3 0 0 1-2.12-.52Z"/></symbol><symbol viewBox="0 0 32 32" id="times-o" xmlns="http://www.w3.org/2000/svg"><path fill="none" stroke="currentColor" stroke-miterlimit="10" stroke-width="4" d="m1.5 1.5 29 29M1.5 30.5l29-29"/></symbol><symbol viewBox="0 0 32 26" id="twitter" xmlns="http://www.w3.org/2000/svg"><path fill="currentColor" d="M27.8 4.2a7.52 7.52 0 0 0 3-3.6 10.77 10.77 0 0 1-4.2 1.6A7.18 7.18 0 0 0 21.8 0a6.49 6.49 0 0 0-6.4 6.6 4.4 4.4 0 0 0 .2 1.6 19.64 19.64 0 0 1-13.4-7 6.64 6.64 0 0 0-1 3.2 6.65 6.65 0 0 0 3 5.6 7.41 7.41 0 0 1-3-.8 6.85 6.85 0 0 0 5.4 6.6H4.8a2.54 2.54 0 0 1-1.2-.2 6.62 6.62 0 0 0 6 4.6 13 13 0 0 1-8 2.8H0a19 19 0 0 0 10 3c12 0 18.6-10 18.6-18.6v-.8A27.25 27.25 0 0 0 32 3.2a41.87 41.87 0 0 1-4.2 1z"/></symbol><symbol viewBox="0 0 30 30" id="x" xmlns="http://www.w3.org/2000/svg"><path fill="currentColor" d="M2.28 3.27 12 16.36 2.22 27h2.21L13 17.68 20 27h7.5L17.19 13.17l9.14-9.91h-2.21l-7.92 8.59-6.4-8.58ZM5.53 4.9H9l15.25 20.47h-3.46Z"/></symbol><symbol viewBox="0 0 32 22.5" id="youtube" xmlns="http://www.w3.org/2000/svg"><path fill="currentColor" d="M31.33 3.55A4 4 0 0 0 28.5.72C26 .05 16 .05 16 .05S6 .05 3.5.72A4 4 0 0 0 .67 3.55a41.51 41.51 0 0 0-.67 7.7A41.51 41.51 0 0 0 .67 19a4 4 0 0 0 2.83 2.78c2.49.67 12.5.67 12.5.67s10 0 12.5-.67A4 4 0 0 0 31.33 19a41.51 41.51 0 0 0 .67-7.7 41.51 41.51 0 0 0-.67-7.75zM12.8 16.05v-9.6l8.31 4.8z"/></symbol></svg>